<svg xmlns="http://www.w3.org/2000/svg" xmlns:xlink="http://www.w3.org/1999/xlink" viewBox="0 0 348 348"><defs><radialGradient id="radial-gradient" cx="173.81677" cy="173.13354" r="166.66836" gradientUnits="userSpaceOnUse"><stop offset="0.30319"/><stop offset="0.30393" stop-color="#080808"/><stop offset="0.30813" stop-color="#323232"/><stop offset="0.31243" stop-color="#545454"/><stop offset="0.31678" stop-color="#6f6f6f"/><stop offset="0.3212" stop-color="#828282"/><stop offset="0.32573" stop-color="#8d8d8d"/><stop offset="0.33055" stop-color="#919191"/><stop offset="0.34241" stop-color="#959595"/><stop offset="0.47925" stop-color="#bbb"/><stop offset="0.6153" stop-color="#d9d9d9"/><stop offset="0.74877" stop-color="#eee"/><stop offset="0.87842" stop-color="#fbfbfb"/><stop offset="1" stop-color="#fff"/></radialGradient><radialGradient id="radial-gradient-2" cx="173.81677" cy="173.13354" r="84.33825" gradientUnits="userSpaceOnUse"><stop offset="0.50152"/><stop offset="0.54246" stop-color="#373737"/><stop offset="0.58753" stop-color="#6b6b6b"/><stop offset="0.6333" stop-color="#989898"/><stop offset="0.67885" stop-color="#bdbdbd"/><stop offset="0.72412" stop-color="#dadada"/><stop offset="0.76907" stop-color="#efefef"/><stop offset="0.81358" stop-color="#fbfbfb"/><stop offset="0.85714" stop-color="#fff"/></radialGradient><mask id="mask" x="-2.06543" y="-2.39876" width="352.46418" height="352.46418" maskUnits="userSpaceOnUse"><circle id="shutter" cx="174.16667" cy="173.83333" r="172.5" style="fill:#fff;stroke:#000;stroke-miterlimit:10;stroke-width:7.464183951280458px"/></mask><radialGradient id="radial-gradient-3" cx="175.333" cy="174.4165" r="84.33825" gradientUnits="userSpaceOnUse"><stop offset="0.57675"/><stop offset="0.57728" stop-color="#080808"/><stop offset="0.58032" stop-color="#323232"/><stop offset="0.58342" stop-color="#545454"/><stop offset="0.58656" stop-color="#6f6f6f"/><stop offset="0.58975" stop-color="#828282"/><stop offset="0.59303" stop-color="#8d8d8d"/><stop offset="0.5965" stop-color="#919191"/><stop offset="0.66424" stop-color="#969696"/><stop offset="0.74532" stop-color="#a5a5a5"/><stop offset="0.83321" stop-color="#bdbdbd"/><stop offset="0.92529" stop-color="#dedede"/><stop offset="1" stop-color="#fff"/></radialGradient><radialGradient id="radial-gradient-4" cx="174.16667" cy="173.83333" r="170.63448" gradientUnits="userSpaceOnUse"><stop offset="0" stop-color="#fff"/><stop offset="0.11703" stop-color="#f0f0f0"/><stop offset="0.34137" stop-color="#cac9ca"/><stop offset="0.6472" stop-color="#8c8b8c"/><stop offset="0.85638" stop-color="#5e5d5e"/><stop offset="0.91275" stop-color="#2f2e2f"/><stop offset="0.97264"/></radialGradient><mask id="mask-2" x="7.14841" y="6.46518" width="333.33671" height="333.33671" maskUnits="userSpaceOnUse"><g id="PUPIL" style="mix-blend-mode:darken"><circle cx="173.81677" cy="173.13354" r="166.66836" style="mix-blend-mode:multiply;fill:url(#radial-gradient)"/></g><g id="PUPIL-2" data-name="PUPIL" style="opacity:0.27;mix-blend-mode:color-burn"><circle cx="173.81677" cy="173.13354" r="84.33825" style="fill:url(#radial-gradient-2)"/></g></mask><radialGradient id="radial-gradient-5" cx="174.16667" cy="173.83333" r="164.98896" gradientUnits="userSpaceOnUse"><stop offset="0"/><stop offset="0.12238" stop-color="#040404"/><stop offset="0.24752" stop-color="#101010"/><stop offset="0.37395" stop-color="#252525"/><stop offset="0.50131" stop-color="#424242"/><stop offset="0.6295" stop-color="#676767"/><stop offset="0.7583" stop-color="#949494"/><stop offset="0.8851" stop-color="#c9c9c9"/><stop offset="1" stop-color="#fff"/></radialGradient><linearGradient id="linear-gradient" x1="16.55092" y1="210.22184" x2="331.78243" y2="137.44491" gradientUnits="userSpaceOnUse"><stop offset="0.03343" stop-color="#ff8000"/><stop offset="0.30943" stop-color="#008fde"/><stop offset="0.38576" stop-color="#4377a5"/><stop offset="0.46201" stop-color="#7f6172"/><stop offset="0.53135" stop-color="#ae504b"/><stop offset="0.59246" stop-color="#cf442f"/><stop offset="0.64301" stop-color="#e43d1d"/><stop offset="0.67675" stop-color="#eb3a17"/><stop offset="0.71063" stop-color="#e04116"/><stop offset="0.77078" stop-color="#c25312"/><stop offset="0.85018" stop-color="#91710c"/><stop offset="0.94476" stop-color="#4d9a04"/><stop offset="0.9924" stop-color="#29b000"/></linearGradient><mask id="mask-3" x="0.12496" y="-0.36282" width="347.57305" height="347.30155" maskUnits="userSpaceOnUse"><g style="mask:url(#mask)"><path d="M275.134,33.95662a342.91364,342.91364,0,0,0-126.557,86.91661q12.67371-.92942,25.58966-.93692A343.40862,343.40862,0,0,1,346.48813,165.992,172.29134,172.29134,0,0,0,275.134,33.95662Z" style="fill:#fff;stroke:#000;stroke-miterlimit:10;stroke-width:2.239255185384141px"/><path d="M128.1977,7.11048a342.91352,342.91352,0,0,0-10.94906,153.13816q7.175-10.48837,15.22186-20.59134A343.40867,343.40867,0,0,1,275.91629,33.6426,172.29131,172.29131,0,0,0,128.1977,7.11048Z" style="fill:#fff;stroke:#000;stroke-miterlimit:10;stroke-width:2.239255185384141px"/><path d="M15.59767,105.25445A342.91365,342.91365,0,0,0,128.50187,209.292q-3.72688-12.149-6.60889-24.73926a343.4086,343.4086,0,0,1,6.5469-178.24968A172.29136,172.29136,0,0,0,15.59767,105.25445Z" style="fill:#fff;stroke:#000;stroke-miterlimit:10;stroke-width:2.239255185384141px"/><path d="M22.12847,254.48029a342.91361,342.91361,0,0,0,151.73389-23.40947q-11.82222-4.66067-23.46276-10.257A343.40854,343.40854,0,0,1,15.11742,104.56171,172.2913,172.2913,0,0,0,22.12847,254.48029Z" style="fill:#fff;stroke:#000;stroke-miterlimit:10;stroke-width:2.239255185384141px"/><path d="M142.872,342.41209a342.91361,342.91361,0,0,0,76.299-133.2278q-11.01473,6.33738-22.64778,11.94933A343.40873,343.40873,0,0,1,21.28743,254.42388,172.29134,172.29134,0,0,0,142.872,342.41209Z" style="fill:#fff;stroke:#000;stroke-miterlimit:10;stroke-width:2.239255185384141px"/><path d="M286.90124,302.832a342.91362,342.91362,0,0,0-56.59363-142.71769q-1.9125,12.563-4.77767,25.15715a343.4087,343.4087,0,0,1-83.2264,157.763A172.29135,172.29135,0,0,0,286.90124,302.832Z" style="fill:#fff;stroke:#000;stroke-miterlimit:10;stroke-width:2.239255185384141px"/><path d="M345.75359,165.54613a342.91359,342.91359,0,0,0-146.86785-44.73268q8.63,9.32793,16.69031,19.42014a343.40868,343.40868,0,0,1,71.45738,163.43088A172.29133,172.29133,0,0,0,345.75359,165.54613Z" style="fill:#fff;stroke:#000;stroke-miterlimit:10;stroke-width:2.239255185384141px"/></g><g id="PUPIL-3" data-name="PUPIL" style="mix-blend-mode:darken"><circle cx="175.333" cy="174.4165" r="84.33825" style="mix-blend-mode:multiply;fill:url(#radial-gradient-3)"/></g><g id="IRIS" style="mix-blend-mode:hard-light"><circle cx="174.16667" cy="173.83333" r="170.63448" style="fill:url(#radial-gradient-4)"/></g></mask><linearGradient id="linear-gradient-2" x1="6.05056" y1="212.64597" x2="342.28275" y2="135.02065" xlink:href="#linear-gradient"/><radialGradient id="radial-gradient-7" cx="173.81677" cy="173.13354" r="84.33825" gradientUnits="userSpaceOnUse"><stop offset="0.57675"/><stop offset="0.5772" stop-color="#080808"/><stop offset="0.57977" stop-color="#323232"/><stop offset="0.58239" stop-color="#545454"/><stop offset="0.58505" stop-color="#6f6f6f"/><stop offset="0.58775" stop-color="#828282"/><stop offset="0.59052" stop-color="#8d8d8d"/><stop offset="0.59347" stop-color="#919191"/><stop offset="0.61223" stop-color="#a6a6a6"/><stop offset="0.6435" stop-color="#c1c1c1"/><stop offset="0.67901" stop-color="#d8d8d8"/><stop offset="0.71987" stop-color="#eaeaea"/><stop offset="0.7694" stop-color="#f6f6f6"/><stop offset="0.8366" stop-color="#fdfdfd"/><stop offset="1" stop-color="#fff"/></radialGradient></defs><title>Irissm</title><g style="isolation:isolate"><g id="bottom"><circle cx="174.16667" cy="173.83333" r="170.63448" style="fill:#212121"/></g><g id="ills"><g style="mask:url(#mask-2)"><path d="M209.17856,27.16576c-3.1652,26.81555-16.458,50.37515-20.509,77.00268-4.35035,28.59511.14325,56.55534-8.53578,84.97425-5.65233,18.50821-15.6641,34.98119-20.60356,53.78381-6.74045,25.65829-4.10232,52.1706-11.88172,77.62922,2.5854-25.10417-1.8847-49.88169,2.37115-74.84469,2.68853-15.76978,8.37286-29.4097,14.26456-44.12623,15.54-38.81648,7.47041-79.36183,20.89427-118.27824C191.86662,63.91722,202.86434,46.86222,209.17856,27.16576Z" style="fill:#666"/><path d="M219.27346,30.205c-5.16913,27.28221-20.62066,50.49762-26.34629,77.66187-6.14,29.13-3.65352,58.224-15.64542,86.53431-6.77324,15.9902-16.53311,30.03742-22.22434,46.53764-8.78432,25.46787-7.96225,52.51566-17.636,77.732,4.33006-24.86964,1.5971-49.90525,7.58416-74.51756,3.78218-15.54825,10.40519-28.76237,17.31018-43.03632,18.21268-37.64912,12.98733-78.66942,29.0954-116.56579C199.43666,65.67,211.59966,49.41864,219.27346,30.205Z" style="fill:#666"/><path d="M250.36459,34.03685c-11.00556,27.20788-31.839,48.05232-43.37789,75.03026-11.73415,27.43458-14.93737,56.01887-31.39459,82.03389-10.70513,16.92232-25.24079,30.67633-35.39416,48.03443-14.3721,24.57042-19.12187,52.77666-34.36569,76.90578,9.63488-24.87694,11.98449-51.38779,23.2833-75.65509,7.13776-15.3303,16.73644-27.65367,26.84671-41.017,26.667-35.2473,29.74212-78.83944,54.27918-114.77858C222.46657,66.68454,238.43516,52.36024,250.36459,34.03685Z" style="fill:#666"/><path d="M272.9666,53.60187c-15.55241,24.07957-39.366,40.25263-55.38525,64.01063-15.28081,22.6628-23.34978,48.19931-41.77389,69.18767-13.75373,15.668-31.54008,26.80267-45.38946,42.42054-18.72309,21.114-28.548,47.732-47.86769,68.365,13.80941-22.09484,20.93024-47.09447,36.22389-68.299,9.6614-13.39549,21.13145-23.45474,33.28319-34.41769,32.05154-28.916,43.00421-70.16795,73.13962-100.13861C240.21139,79.79813,258.15924,68.98885,272.9666,53.60187Z" style="fill:#666"/><path d="M268.17518,72.012c-15.04209,20.702-37.06067,33.95189-52.50314,54.3444-14.7306,19.45246-23.17357,41.81961-40.624,59.6256-13.02687,13.2923-29.42627,22.34633-42.53594,35.5893-17.72308,17.90329-27.78418,41.1485-46.01551,58.59391,13.39124-19.01826,20.96279-40.95329,35.63342-59.1053,9.26783-11.46711,19.98444-19.87184,31.35293-29.04872,29.98566-24.205,41.76867-60.43913,70.098-85.67808C237.69549,93.75826,254.2229,85.00222,268.17518,72.012Z" style="fill:#666"/><path d="M296.69389,79.86741C276.176,99.677,249.44379,109.95658,228.5464,129.34893c-19.93406,18.49841-33.53133,41.41324-56.13182,57.578-16.87142,12.06706-36.62385,18.82938-53.5766,30.82627-22.91858,16.2187-38.46187,39.784-61.84963,55.40173,18.38-18.28115,30.93711-40.89043,50.55357-57.97311,12.39224-10.79158,25.78171-17.9415,40.03616-25.81269,37.59768-20.76111,57.54568-58.24923,93.52562-80.46584C259.03,97.83425,278.86525,91.42378,296.69389,79.86741Z" style="fill:#666"/><path d="M317.83418,106.62232c-24.95633,15.29381-54.02124,19.658-79.26891,34.45123-25.675,15.04366-45.19049,36.067-73.81144,47.17214-18.61742,7.22369-38.42826,9.63563-56.86157,17.53591-26.09238,11.18285-46.62394,30.98615-73.15375,41.29831,22.47522-14.23722,40.07688-34.10391,63.525-46.86575,14.81281-8.062,29.81637-12.25366,45.84676-16.976,42.28192-12.45568,70.59239-45.59014,111.57647-59.86337C276.10627,116.26344,297.40431,114.24371,317.83418,106.62232Z" style="fill:#666"/><path d="M315.25458,136.90307c-25.083,9.71872-52.08662,8.89908-77.35758,18.09976-24.08687,8.76958-44.286,23.87087-69.86,29.56147-19.46718,4.33175-39.48485,2.98025-58.966,7.43409-25.44208,5.81666-47.26455,20.34237-72.95522,25.29876,22.66934-9.17341,41.85859-24.24025,65.16475-31.91923,14.72313-4.851,28.98135-6.17063,44.25554-7.801,40.28736-4.30036,71.34579-29.60175,110.75883-35.75949C275.93175,138.74943,295.52445,140.43056,315.25458,136.90307Z" style="fill:#666"/><path d="M313.23239,157.45743c-24.48231,5.73774-49.32756,1.57522-73.92634,6.47774-26.41644,5.26479-49.4707,18.07129-77.10644,19.49025-17.99814.92412-35.59769-2.6144-53.62741-.97271C83.96863,184.693,61.5933,195.4155,36.83487,196.68277c22.8-5.70232,43.07511-17.47833,66.28153-21.67332,14.66011-2.65009,28.406-2.00142,43.16041-1.51281,38.91626,1.28876,71.85451-18.64211,110.18677-19.23782C275.56188,153.962,293.98386,158.1791,313.23239,157.45743Z" style="fill:#666"/><path d="M321.127,183.62384c-26.4657,1.15685-51.373-8.00622-77.79606-7.73676-28.37556.28937-54.74391,9.043-83.63038,5.11284-18.8127-2.55955-36.34092-9.66108-55.32649-11.48395-25.90795-2.48752-51.16631,4.24134-77.04448.7163,24.71717-1.44886,48.00718-9.67862,72.85064-9.48765,15.69428.12065,29.79771,3.47766,44.97637,6.866,40.03537,8.93707,78.02774-5.26088,117.82671,1.61125C282.81233,172.64576,301.05938,180.61042,321.127,183.62384Z" style="fill:#666"/><path d="M326.49472,201.54473c-27.7972-1.91554-52.74719-14.433-80.39509-17.27094-29.69088-3.04768-58.28322,2.988-88.0099-4.53-19.3599-4.89621-36.84108-14.38781-56.46862-18.53449-26.784-5.65861-53.97719-1.608-80.60757-8.34749,26.00419,1.40392,51.31737-4.44771,77.26-1.315,16.38862,1.979,30.73248,7.15269,46.1964,12.486,40.78781,14.06729,82.17178,3.71382,122.9563,15.595C287.7463,185.54744,305.87687,196.026,326.49472,201.54473Z" style="fill:#666"/><path d="M315.6265,228.787c-27.14087-7.18271-49.438-24.44161-76.41977-32.177-28.93429-8.29521-58.455-7.88809-86.14016-22.02578-15.6371-7.98522-29.09907-18.84219-45.32863-25.773-25.05011-10.69764-52.38711-11.82132-77.11934-23.39783,24.76838,6.16235,50.21405,5.21363,74.60329,13.02847,15.40733,4.93684,28.25558,12.57013,42.15233,20.56433,36.65419,21.08556,78.40034,18.77729,115.45583,37.75821C281.29222,206.22115,296.80358,219.6608,315.6265,228.787Z" style="fill:#666"/><path d="M308.64723,245.95652c-26.256-10.50289-46.41728-30.49875-72.45373-41.51632-26.47714-11.20407-54.03035-14.1842-79.15729-29.94426-16.34463-10.25165-29.6508-24.20583-46.41327-33.92422-23.72729-13.7564-50.922-18.228-74.22733-32.826,24.005,9.19089,49.55728,11.35626,72.9811,22.15263,14.79745,6.82036,26.70683,16.023,39.62015,25.71472,34.06028,25.563,76.07326,28.364,110.79223,51.87217C277.08714,219.19775,290.94811,234.53046,308.64723,245.95652Z" style="fill:#666"/><path d="M301.58623,256.287c-25.23214-12.57918-43.63567-34.095-68.60434-47.16558-23.81766-12.468-49.65868-17.57342-72.182-33.29646-16.81383-11.73735-29.63573-27.91048-46.411-39.74678-22.67867-16.00162-49.76821-22.70559-72.04179-39.34278C65.44923,107.827,90.66217,112.064,113.0558,124.70349c14.14665,7.98467,25.22917,18.10077,37.26932,28.78476,31.75722,28.18019,73.27429,34.39229,105.85371,60.58457C272.41089,227.12261,284.93227,243.48905,301.58623,256.287Z" style="fill:#666"/><path d="M272.84353,278.79129c-20.39877-17.27558-32.49332-41.2406-52.53863-58.90925-19.12126-16.85417-41.76656-27.38449-58.96168-46.94423-12.83627-14.60148-20.99584-32.3874-33.7743-47.07131-17.27532-19.85131-40.7098-32.13539-57.4687-52.48062C88.87306,88.81112,111.13583,98.40014,128.907,115.091c11.22654,10.544,19.15057,22.35972,27.82838,34.91439,22.88867,33.11431,59.72035,48.19975,83.81458,79.66886C252.55449,245.35306,260.39371,263.24922,272.84353,278.79129Z" style="fill:#666"/><path d="M255.7858,289.23383c-17.51008-19.56815-26.03548-44.52143-43.14847-64.42421-16.32412-18.98531-36.93253-32.29451-51.01656-53.65165-10.51383-15.94326-16.04658-34.35216-26.493-50.36779-14.12261-21.65168-35.2616-36.774-48.81495-58.83637,16.17844,17.54788,36.542,29.88948,51.57467,48.5332,9.49654,11.77774,15.60782,24.346,22.35252,37.73516,17.78989,35.31549,51.58487,54.97587,70.77029,88.85373C240.56906,253.95488,245.77522,272.4277,255.7858,289.23383Z" style="fill:#666"/><path d="M233.89676,299.85808c-13.71854-21.9861-17.78975-47.68773-31.06719-69.93533C189.32739,207.29857,170.575,190.17044,160.5388,164.91c-6.52837-16.4315-8.80515-33.95391-15.93123-50.21758C134.5206,91.67116,116.84114,73.63473,107.52192,50.22c12.76537,19.797,30.48,35.239,41.94611,55.90781,7.24343,13.05708,11.06159,26.31065,15.35691,40.46955,11.32939,37.34565,40.86717,62.17406,53.79648,98.35769C225.0632,262.98284,227.00334,281.82477,233.89676,299.85808Z" style="fill:#666"/><path d="M206.97385,329.98488c-9.30292-28.0912-6.92218-57.71489-15.64563-85.98419-8.31471-26.94473-23.79912-49.9651-28.64947-78.37493-3.69214-21.62585-1.11-43.545-4.9355-65.19283-4.99608-28.27182-19.75912-53.0442-23.79642-81.542,8.83611,25.40944,24.338,47.31838,31.49731,73.34558,4.5227,16.44207,5.191,32.17977,6.145,49.05076,2.51638,44.49906,28.61228,80.00958,33.21727,123.64985C207.10078,286.68005,204.17975,308.11421,206.97385,329.98488Z" style="fill:#666"/><path d="M191.80368,315.70858c-6.10846-25.12088-2.04168-50.69964-7.29246-75.9474-5.63877-27.11339-19.00232-50.70561-20.69768-79.10545-1.10413-18.49579,2.38314-36.62.541-55.14207-2.51378-25.27549-13.729-48.18754-15.2438-73.63056,6.05765,23.39158,18.338,44.13544,22.84943,67.95779,2.85,15.04922,2.30077,29.18682,1.92473,44.3598-.99187,40.0204,19.78077,73.71325,20.72131,113.11713C195.07484,276.95,190.897,295.92556,191.80368,315.70858Z" style="fill:#666"/><path d="M173.527,312.99961c-2.72972-25.036,4.42692-49.23,2.54168-74.28029-2.02455-26.90133-11.95511-51.37644-10.00823-79.02268,1.26793-18.005,6.92393-35.07155,7.48234-53.1951.762-24.73163-7.17929-48.27859-5.43117-73.04595,2.8989,23.35919,12.14265,44.94627,13.49366,68.5264.85348,14.8962-1.46142,28.48281-3.73971,43.09139-6.00924,38.53172,9.80313,73.69847,5.73827,111.87856C181.57863,275.97443,175.14813,293.77616,173.527,312.99961Z" style="fill:#666"/><path d="M153.53314,325.61953c.56276-27.73339,11.80525-53.14742,13.29246-80.77688,1.59711-29.67107-5.78505-57.81125.25552-87.73375,3.934-19.48743,12.52827-37.32856,15.704-57.04594,4.3337-26.9066-1.007-53.75133,4.40892-80.55735-.14057,25.92576,6.90025,50.8141,5.03764,76.76207-1.17667,16.392-5.62876,30.905-10.18554,46.53947-12.019,41.23762.27422,81.88905-9.57115,123.01787C167.56976,286.31665,158.02543,304.85117,153.53314,325.61953Z" style="fill:#666"/><path d="M118.991,304.7473c7.30157-25.36047,23.9741-45.96423,31.79186-71.16393,8.3835-27.0233,8.60065-54.77448,22.44941-80.50519,7.822-14.53317,18.29867-26.96387,25.14185-42.07525,10.56234-23.32422,12.17374-48.99212,23.55556-71.99974-6.29444,23.15159-5.91982,47.08416-13.75954,69.84587-4.95256,14.37918-12.38719,26.29861-20.18229,39.19606-20.56044,34.01844-19.23931,73.29747-37.83,107.7358C140.8954,272.93914,127.95,287.24334,118.991,304.7473Z" style="fill:#666"/><path d="M89.69672,309.236c12.66947-26.79131,34.87817-46.59882,48.07194-73.12748,13.41709-26.97769,18.30068-55.60816,36.39693-80.88143,11.7713-16.43982,27.22078-29.464,38.46107-46.375,15.91063-23.93764,22.33141-52.09749,39.09529-75.53981-11.15278,24.52084-15.05583,51.11047-27.85073,74.92042-8.08288,15.04138-18.47258,26.909-29.43821,39.79548C165.51,182.01756,159.88683,225.78488,133.07088,260.595,119.71035,277.9385,102.78332,291.45462,89.69672,309.236Z" style="fill:#666"/><path d="M88.88881,291.0053c13.17324-23.54942,34.5792-40.16429,48.21021-63.43949,13.00265-22.20225,19.05873-46.67371,35.11425-67.49055,11.98555-15.53993,28.03006-27.06184,40.10846-42.56042,16.32889-20.95267,23.97-46.545,40.88806-67.08147-11.65426,21.58088-16.85168,45.49139-29.95342,66.32449-8.27672,13.16082-18.45168,23.29543-29.21309,34.31968-28.3844,29.07769-36.21153,68.48491-62.73291,98.439C118.0966,264.44062,101.881,275.66645,88.88881,291.0053Z" style="fill:#666"/><path d="M71.49808,285.39681c16.54427-22.9,40.81288-37.59378,57.8001-60.15327,16.20414-21.51956,25.458-46.238,44.66979-65.94807,14.3417-14.71367,32.41936-24.75843,46.85263-39.41789,19.51246-19.81825,30.55013-45.511,50.62506-64.82525-14.72679,21.03618-23.01994,45.275-39.16177,65.35869-10.19723,12.68739-22.00308,21.9983-34.5263,32.1636-33.03135,26.81208-45.931,66.84963-77.13073,94.7982C105.08222,261.29766,86.86234,271.01384,71.49808,285.39681Z" style="fill:#666"/><path d="M51.775,252.72315c20.80691-17.28329,46.81679-25.11372,67.95312-41.97558,20.162-16.08456,34.64337-36.79444,57.162-50.48318,16.81034-10.21874,35.97-15.21654,52.85234-25.36316,22.82333-13.7173,39.19122-34.90465,62.41575-48.02038-18.67679,15.98907-32.15285,36.48357-51.91428,51.25166-12.48382,9.32939-25.65309,15.144-39.69147,21.57965-37.02776,16.97461-58.54672,51.018-94.14747,69.48366C88.66765,238.396,69.45452,243.05515,51.775,252.72315Z" style="fill:#666"/><path d="M45.81261,233.242c22.325-13.859,48.395-17.92742,70.98409-31.33861,22.97146-13.63818,40.38232-32.61266,66.01885-42.73034,16.67611-6.58138,34.44851-8.84926,50.95583-16.03708,23.36614-10.17437,41.69549-28.05882,65.45883-37.4538-20.10307,12.89765-35.80182,30.82384-56.78594,42.402-13.25623,7.31424-26.70375,11.155-41.07034,15.47737-37.89347,11.40087-63.13719,41.29345-99.85613,54.31928C83.2233,224.37067,64.11375,226.29415,45.81261,233.242Z" style="fill:#666"/><path d="M26.54151,218.85914c26.22049-11.57752,55.0033-12.03247,81.44932-23.06783,25.20687-10.51829,45.96441-27.58493,72.9055-34.89907,20.50784-5.5676,41.881-5.113,62.39764-10.81129,26.7945-7.44184,49.30821-23.97562,76.40961-30.514-23.67821,10.87846-43.36254,27.85878-67.792,37.17787-15.43277,5.88712-30.54428,7.99258-46.72191,10.47877-42.67028,6.55762-74.485,35.015-116.13337,43.5066C68.30577,214.961,47.36877,214.13465,26.54151,218.85914Z" style="fill:#666"/><path d="M22.93049,202.35127c26.51524-8.38263,54.26194-5.87857,80.97574-13.35,28.68775-8.02348,53.03478-24.081,83.39-27.966,19.76922-2.53017,39.47359-.10586,59.21737-3.42995,26.94262-4.53609,50.71594-18.23861,77.911-21.71477-24.66307,8.20232-46.032,22.8902-71.26988,29.46449-15.94341,4.15316-31.15571,4.592-47.46658,5.292-43.02171,1.84628-77.66978,26.58983-119.88928,30.46511C64.76377,203.04288,44.09552,199.93937,22.93049,202.35127Z" style="fill:#666"/><path d="M33.61994,176.45594c25.11766-3.49631,49.68353,2.98342,74.84086.33666,27.01627-2.84233,51.354-13.56968,79.23884-12.437,18.16036.7377,35.50741,5.92017,53.76589,5.94017,24.91575.02729,48.3788-8.67,73.36-7.65129-23.42486,3.61645-44.8763,13.56613-68.56985,15.63121-14.96784,1.30456-28.71232-.61909-43.48433-2.47532-38.9628-4.896-73.886,12.07128-112.43676,9.12181C71.12745,183.45271,53.01728,177.51268,33.61994,176.45594Z" style="fill:#666"/><path d="M29.17313,147.00561c26.52978,1.63393,50.41727,13.401,76.811,15.916,28.34407,2.70072,55.577-3.25577,83.98637,3.70907,18.50195,4.536,35.24371,13.46862,53.99577,17.28771,25.58929,5.21158,51.50138,1.15846,76.95165,7.40216-24.81582-1.15834-48.922,4.59976-73.69107,1.79186-15.64728-1.77383-29.36624-6.60936-44.15477-11.58941-39.00637-13.13541-78.41156-2.9711-117.39959-14.02118C66.2475,161.99629,48.87941,152.12664,29.17313,147.00561Z" style="fill:#666"/><path d="M23.44656,133.77374c28.66847,4.02486,53.61375,18.96,82.18709,23.5703,30.64108,4.94388,60.81514.90618,90.894,11.98494,16.98907,6.25748,32.10342,15.72192,49.56975,20.82722,26.959,7.88,55.08512,5.67737,81.8265,14.49613-26.11431-3.27117-52.04983.8212-77.97865-4.18834-16.37992-3.16465-30.47054-9.40389-45.6789-15.884-40.1137-17.092-82.57129-9.60838-122.8377-24.49643C61.36664,152.66585,43.83729,140.80858,23.44656,133.77374Z" style="fill:#666"/><path d="M33.91781,102.77153C61.28574,112.72582,82.69,132.65,109.84869,143.14124c27.61841,10.6688,56.07619,12.83759,82.45343,28.23992,17.15793,10.019,31.30912,23.948,48.87973,33.40447,24.87123,13.38561,53.00865,17.10132,77.473,31.3669-25.00821-8.67726-51.37981-10.07268-75.84214-20.42142-15.4535-6.53758-28.012-15.62146-41.6198-25.176-35.89208-25.20111-79.22749-26.71388-115.73054-49.77856C67.27545,129.285,52.50823,113.95513,33.91781,102.77153Z" style="fill:#666"/><path d="M63.032,83.68965c22.41965,14.00929,37.66236,35.74575,59.79192,50.19,21.10944,13.77838,44.76931,20.8667,64.37806,37.56679,14.63806,12.46674,25.15144,28.71474,39.74464,41.27037,19.72867,16.97407,44.41013,25.66668,63.70357,43.19755-20.56538-12.42937-43.71709-18.65078-63.482-32.46112-12.486-8.72437-21.92047-19.16263-32.1977-30.217-27.10729-29.1572-65.299-38.6878-93.35241-66.06348C87.641,113.53329,77.42552,97.13188,63.032,83.68965Z" style="fill:#666"/><path d="M74.51544,52.82037C95.42421,72.7845,106.93712,99.43531,127.439,119.801c19.55676,19.42689,43.32533,32.25385,60.62841,54.47749,12.91686,16.59009,20.5798,36.3167,33.429,52.99207,17.37087,22.54357,41.87842,37.31465,58.66,60.35818-19.27268-17.86184-42.68892-29.648-60.79874-48.81154-11.44046-12.10614-19.23373-25.37236-27.79314-39.4849-22.5764-37.2234-61.36657-55.88179-85.35042-91.40674C94.26452,90.226,86.95452,70.401,74.51544,52.82037Z" style="fill:#666"/><path d="M95.12909,34.89124c17.48758,23.69671,24.37487,52.4587,41.38377,76.48717,16.22482,22.9208,37.83219,39.95562,51.30555,65.28851,10.058,18.91118,14.294,40.05008,24.269,59.035,13.48538,25.66585,35.49394,44.78114,48.30035,70.84553-16.21378-21.30042-37.64981-37.229-52.46864-59.63216-9.36144-14.15268-14.85954-28.83093-20.97832-44.49269-16.139-41.30962-51.80044-66.82708-69.64928-106.67866C108.39872,75.88864,104.53411,54.71282,95.12909,34.89124Z" style="fill:#666"/><path d="M101.53533,36.7242c16.347,23.56065,22.23158,51.7477,38.10514,75.62114,16.14224,24.27754,37.79106,42.19772,50.24462,69.57576,8.10083,17.80894,11.56142,37.0527,20.31381,54.64393,12.389,24.90042,32.90093,43.8823,44.46261,69.259-15.17554-21.1925-35.58658-37.305-49.37307-59.53117-8.7093-14.04086-13.64345-28.48348-19.15377-43.901-14.53406-40.66536-48.51823-66.515-64.758-105.80984C113.28556,77.00413,110.12593,56.28385,101.53533,36.7242Z" style="fill:#666"/><path d="M130.518,36.30566c11.06065,24.21919,11.82017,50.94857,22.37987,75.38358,10.06492,23.2901,26.16014,42.3708,33.26921,67.30922,5.4115,18.98339,5.23949,38.841,10.77244,57.831,7.226,24.80077,22.8468,45.51892,29.2372,70.61532-10.38156-21.866-26.384-39.95086-35.326-62.53294-5.64887-14.2657-7.78141-28.27727-10.28008-43.27465-6.5905-39.55722-33.39535-68.775-41.77029-107.36035C134.62777,75.05246,135.15018,55.5956,130.518,36.30566Z" style="fill:#666"/><path d="M158.097,27.71564c5.963,25.6587,1.55385,51.67829,6.64166,77.45738,5.46376,27.684,18.83474,51.86046,20.26726,80.81424.93295,18.85653-2.80835,37.28679-1.12374,56.1778,2.29884,25.77891,13.488,49.24009,14.76722,75.17933-5.92919-23.89622-18.22606-45.15933-22.57538-69.4784-2.74759-15.363-2.04119-29.76189-1.50051-45.21751,1.4261-40.76588-19.389-75.31069-19.93822-115.46847C154.3617,67.17218,158.81545,47.88167,158.097,27.71564Z" style="fill:#666"/><path d="M184.86148,26.50236c1.15715,26.45318-8.0008,51.349-7.73063,77.75961.29014,28.36218,9.04047,54.7178,5.11311,83.59077-2.55775,18.80391-9.65536,36.32409-11.47677,55.30077-2.48552,25.89581,4.241,51.142.71842,77.00811-1.449-24.70547-9.67559-47.98423-9.48549-72.816.12008-15.68687,3.47506-29.78376,6.8613-44.95537,8.93159-40.01677-5.26088-77.99077,1.60673-117.77118C173.8898,64.79928,181.85012,46.56057,184.86148,26.50236Z" style="fill:#666"/><path d="M129.99215,325.68275c4.21828-34.51747,37.05222-48.60477,50.03913-78.23056,9.87247-22.5211,6.94115-45.72336-4.23491-67.09468-15.36177-29.37541-26.12158-56.36519-8.515-87.73254,15.4151-27.46309,44.46288-38.776,50.3916-71.99424-4.23314,34.69784-37.00109,48.50754-50.03337,78.23316-10.53045,24.01914-6.09753,47.68838,6.03889,70.20543,14.96115,27.75783,23.16464,55.28738,6.70014,84.61636C164.84083,281.36392,135.93549,292.34275,129.99215,325.68275Z" style="fill:#b2b2b2"/><path d="M140.00228,312.25686c2.516-31.26665,31.58342-45.18617,42.18453-72.37073,8.05882-20.66531,4.55261-41.46758-6.31611-60.31256-14.93934-25.90288-25.6422-49.8271-10.94241-78.75337,12.87013-25.32583,38.62855-36.60381,42.73452-66.76324-2.52268,31.42974-31.541,45.09662-42.17925,72.37285-8.596,22.04-3.71909,43.20716,8.05786,63.049,14.518,24.45994,22.93705,48.96586,9.19065,76.01246C169.75938,271.01555,144.11688,281.98718,140.00228,312.25686Z" style="fill:#b2b2b2"/><path d="M110.70393,315.97151c8.72724-33.08227,42.61614-42.42371,59.23662-69.56527,12.63465-20.63262,12.87975-43.64124,4.84338-65.96756-11.0462-30.68807-17.92557-58.43538,3.43085-86.65685,18.69821-24.70875,48.52553-31.852,58.74632-63.4392-8.76584,33.25608-42.5533,42.33576-59.23135,69.56857-13.47634,22.00487-12.32018,45.66947-3.50088,69.241,10.872,29.05776,15.18737,56.98941-4.78323,83.37666C150.59906,277.43093,120.95524,284.26766,110.70393,315.97151Z" style="fill:#b2b2b2"/><path d="M120.92811,325.67783c6.17971-34.82935,40.304-47.33586,55.12184-76.71511,11.26432-22.33368,9.56066-46.06217-.61807-68.38354-13.99092-30.68127-23.43839-58.6867-3.83253-89.58131,17.16553-27.04919,47.29173-36.94544,55.13749-70.36124-6.20471,35.01173-40.24673,47.2399-55.11614,76.71806-12.0149,23.81918-8.81164,48.10445,2.27968,71.6423,13.67279,29.01624,20.49406,57.42959,2.16017,86.31644C158.75857,282.57442,128.7954,292.1392,120.92811,325.67783Z" style="fill:#b2b2b2"/><path d="M98.34548,294.91126c12.1915-29.102,44.04381-33.062,62.65374-55.69108,15.04939-18.29958,17.00474-39.87481,11.96561-62.47439-6.19509-27.78382-6.57127-53.71132,14.92383-75.15532,20.28453-20.23631,48.08673-22.68419,61.4307-50.187C237.1807,80.39593,205.28333,84.4681,186.67,107.09827c-16.04689,19.50986-16.68757,41.71963-11.16226,65.61938,6.11028,26.43007,4.527,51.79088-15.7353,72.00294C139.51211,264.93069,111.65208,267.47108,98.34548,294.91126Z" style="fill:#b2b2b2"/><path d="M104.70341,307.91406c10.35724-31.70929,43.583-38.60713,61.25743-64.04466,14.29289-20.57072,14.50763-43.473,7.26427-66.85634-8.905-28.74737-11.5194-56.03642,9.29668-80.472,19.64375-23.05942,48.731-28.01731,60.43952-58.14-10.31094,31.58934-43.57458,38.60917-61.25251,64.04816-15.24046,21.9314-14.01558,45.38986-6.14869,70.10167,8.69978,27.32809,9.20093,54.18763-10.42145,77.21958C145.51817,272.80016,116.37785,277.86048,104.70341,307.91406Z" style="fill:#b2b2b2"/><path d="M98.73269,297.47316c12.01833-29.64565,44.26291-34.03357,62.86392-57.19242,15.04219-18.728,16.7716-40.62329,11.39819-63.47506-6.606-28.09387-7.29128-54.374,14.24852-76.36531,20.32673-20.75276,48.48315-23.56021,61.68856-51.59816-11.966,29.534-44.255,34.03609-62.85945,57.19609-16.03923,19.96665-16.42843,42.48981-10.54691,66.654,6.50421,26.72246,5.19633,52.45112-15.10812,73.179C140.11491,266.5972,111.901,269.4991,98.73269,297.47316Z" style="fill:#b2b2b2"/><path d="M62.17414,287.88264c20.19811-28.68035,56.10417-25.56039,81.76782-45.71318,19.50913-15.31986,27.95867-37.34634,28.20516-61.67349.33881-33.43828,3.63259-62.56261,34.23355-82.0626,26.79208-17.07284,58.00975-13.29017,79.1096-40.00035-20.29727,28.83363-56.01238,25.4983-81.76393,45.71823-20.808,16.33828-28.14493,39.49547-28.08347,65.29893.07576,31.80917-5.74811,60.19533-34.36233,78.42715C114.27684,265.083,83.345,261.0712,62.17414,287.88264Z" style="fill:#b2b2b2"/><path d="M59.46341,275.75984c21.20333-26.15083,55.3823-20.83126,81.26525-38.4616,19.67585-13.40232,29.19725-33.94484,31.01331-57.22314,2.4962-31.99659,7.54174-59.67046,38.11-76.355,26.76344-14.60786,56.41-8.95822,78.34885-33.164-21.30823,26.29116-55.29037,20.77777-81.26186,38.46669-20.98569,14.29314-29.51517,35.99063-31.13224,60.70255-1.99343,30.46356-9.41369,57.26629-37.99719,72.86558C110.83482,257.31222,81.47679,251.46176,59.46341,275.75984Z" style="fill:#b2b2b2"/><path d="M63.59574,291.28762c19.77288-29.368,56.0699-26.98089,81.53851-47.86,19.36087-15.872,27.41994-38.27684,27.153-62.8293-.36694-33.748,2.33928-63.20556,32.80371-83.53062,26.67254-17.79521,58.2528-14.64006,78.97733-42.03913-19.86968,29.52472-55.97858,26.91629-81.53447,47.865-20.64988,16.92715-27.56232,40.44936-26.95334,66.48494.75072,32.09531-4.52411,60.86171-33.01071,79.865C115.68649,267.17728,84.38977,263.78487,63.59574,291.28762Z" style="fill:#b2b2b2"/><path d="M68.25764,264.46609c19.69047-23.40331,50.64777-18.00779,74.44826-33.59469,18.09278-11.84893,27.08-30.35084,29.11342-51.46476,2.795-29.0216,7.83437-54.0748,35.87495-68.72538,24.55038-12.827,51.38545-7.20647,71.71189-28.83091-19.78806,23.529-50.56339,17.96072-74.44526,33.59937-19.29722,12.63647-27.40248,32.2038-29.27884,54.62318-2.31309,27.63744-9.495,51.86019-35.71494,65.55774C115.223,248.55723,88.65332,242.759,68.25764,264.46609Z" style="fill:#b2b2b2"/><path d="M34.49569,252.553c27.40725-21.9916,61.09773-9.01355,91.39609-21.27951,23.03239-9.3244,37.28384-28.176,44.27956-51.52086,9.61579-32.088,20.87706-59.20325,55.74592-69.46926,30.52875-8.98822,59.52284,3.32515,87.2506-16.51978-27.54526,22.11158-60.99212,8.97929-91.39375,21.28545-24.56536,9.94373-38.06015,30.19269-45.16964,55.04392-8.7642,30.6353-22.25544,56.33716-54.85987,65.9346C90.97528,245.08486,62.31991,232.63038,34.49569,252.553Z" style="fill:#b2b2b2"/><path d="M36.26652,253.25591c26.99978-22.0825,60.56046-9.51327,90.5201-21.96916,22.77488-9.46879,36.74567-28.31262,43.47293-51.549,9.24679-31.939,20.173-58.95728,54.68769-69.47046,30.21871-9.20462,59.11172,2.74841,86.44955-17.20633-27.13566,22.20287-60.456,9.47829-90.51772,21.975-24.29075,10.09773-37.49753,30.3215-44.32374,55.05414-8.415,30.48911-21.56768,56.12526-53.841,65.95383C92.25747,245.31936,63.69936,233.22313,36.26652,253.25591Z" style="fill:#b2b2b2"/><path d="M35.08518,250.38845c27.35441-21.50281,60.5835-8.31916,90.7041-20.16376,22.89726-9.0041,37.19471-27.52831,44.35262-50.57323,9.83873-31.6758,21.25741-58.41158,55.88354-68.23071,30.31624-8.59695,58.90193,3.88205,86.55241-15.49212-27.49224,21.62024-60.4786,8.28628-90.70184,20.16967-24.42123,9.60211-37.98334,29.51735-45.26881,54.05265-8.98116,30.24585-22.59378,55.56016-54.97123,64.73976C91.08085,243.55364,62.83194,230.93827,35.08518,250.38845Z" style="fill:#b2b2b2"/><path d="M36.323,228.21324c27.85242-16.6618,57.03955-.53475,86.30957-7.93308,22.25064-5.6241,37.66971-21.0736,47.01727-41.55,12.84844-28.1454,26.57472-51.53316,59.77408-56.52469,29.06706-4.37025,54.04112,10.55582,81.91581-4.10141-27.99383,16.75415-56.93861.51674-86.30817,7.93881-23.73143,5.99725-38.63457,22.82076-48.27636,44.66115-11.8859,26.92369-27.4741,48.73682-58.51722,53.40247C88.9421,228.50949,64.29578,213.49707,36.323,228.21324Z" style="fill:#b2b2b2"/><path d="M29.0226,223.41392c29.59779-15.87546,58.98835,2.2079,89.60318-4.02319,23.273-4.73678,39.95959-19.96084,50.61331-40.67518,14.64381-28.47238,29.96478-51.98424,64.52495-55.53722,30.25848-3.11075,55.352,13.52723,84.87586-.275-29.74845,15.96409-58.88313-2.22162-89.602,4.02919-24.82173,5.05084-41.04153,21.7202-52.06543,43.83021-13.58969,27.25608-30.75914,49.05011-63.0746,52.37059C83.40124,226.26689,58.65063,209.5555,29.0226,223.41392Z" style="fill:#b2b2b2"/><path d="M16.11542,203.38568c33.08228-11.98753,60.82027,11.19907,93.50016,9.36358,24.84277-1.39531,44.44153-14.65774,58.61523-34.52326,19.48209-27.30565,38.91692-49.36639,75.28244-47.82953,31.83913,1.34557,55.34071,22.38468,88.03313,12.5353-33.25185,12.05665-60.70911-11.19741-93.49985-9.35718-26.49584,1.487-45.82895,16.31825-60.59722,37.57476-18.20555,26.20392-39.29724,46.20457-73.30053,44.76572C72.05933,214.55721,48.92438,193.49381,16.11542,203.38568Z" style="fill:#b2b2b2"/><path d="M36.20041,199.98c28.85394-10.55706,53.137,9.61346,81.66713,7.922,21.68822-1.28585,38.76526-12.91948,51.08736-30.304,16.937-23.89545,33.847-43.21108,65.60454-41.96795,27.80468,1.08841,48.38277,19.39531,76.9021,10.70628-29.00181,10.61788-53.0399-9.61231-81.66685-7.91638-23.13138,1.37036-39.9722,14.37316-52.80968,32.97387-15.82538,22.93-34.1877,40.4513-63.88232,39.28733C85.0794,209.58265,64.82138,191.25354,36.20041,199.98Z" style="fill:#b2b2b2"/><path d="M14.77561,201.72452c33.4297-11.67438,61.06908,11.98255,93.97478,10.51895,25.01444-1.1126,44.89129-14.228,59.38662-34.05145,19.9242-27.24779,39.73932-49.21845,76.31413-47.24538,32.02237,1.72748,55.42406,23.1738,88.43638,13.64638C299.28637,156.335,271.93026,132.61343,238.913,134.0805c-26.67891,1.18542-46.30685,15.88264-61.4168,37.09878-18.62675,26.15415-40.08491,46.0324-74.28388,44.18567C70.93817,213.62216,47.9057,192.15569,14.77561,201.72452Z" style="fill:#b2b2b2"/><path d="M24.95759,175.06753c32.14682-5.555,53.68887,20.12417,83.81551,23.76967,22.90183,2.77126,42.94946-6.14272,59.12058-21.9668,22.22761-21.75059,43.55813-38.72172,76.49966-31.39811,28.84133,6.41205,46.86635,29.44142,78.30921,25.77448-32.31285,5.5905-53.58769-20.10457-83.81628-23.76379-24.42554-2.95676-44.48614,7.43243-61.42642,24.42929-20.8831,20.95285-43.39046,35.77392-74.19189,28.92437C74.20016,194.37262,56.51374,171.38077,24.95759,175.06753Z" style="fill:#b2b2b2"/><path d="M21.4733,166.19123c33.20729-3.75471,53.69841,23.79641,84.28854,29.32944,23.25419,4.20613,44.28968-3.70849,61.77492-18.92187,24.0339-20.91118,46.86405-36.98845,80.11243-27.5254,29.11,8.28518,46.16322,32.91578,78.5375,31.04971-33.37921,3.781-53.59611-23.7703-84.28969-29.32347-24.80127-4.48712-45.93841,4.93532-64.28048,21.30195-22.61116,20.17593-46.516,33.984-77.60421,25.13394C70.67384,188.88363,53.96462,164.31168,21.4733,166.19123Z" style="fill:#b2b2b2"/><path d="M13.65664,163.48325c34.99255-3.43849,56.12519,25.86146,88.22137,32.15353,24.39905,4.78314,46.65071-3.21916,65.27987-18.95458,25.60624-21.62873,49.87165-38.19065,84.70382-27.72318,30.49663,9.16458,48.05755,35.33914,82.14465,33.87469-35.1738,3.46356-56.018-25.83241-88.22266-32.14726-26.02229-5.10258-48.40411,4.48441-67.95244,21.41987-24.09817,20.87716-49.45919,35.03524-82.02828,25.246C65.067,188.114,47.86708,162.00643,13.65664,163.48325Z" style="fill:#b2b2b2"/><path d="M21.64245,155.26662C55.19054,153.882,73.75289,182.96026,104.013,190.696c23.00329,5.88062,44.65114-.54463,63.26377-14.53871,25.58352-19.23522,49.6145-33.71227,82.25716-21.8476,28.57964,10.38788,43.90583,36.29311,76.48384,36.74153-33.72225,1.39872-52.00979-27.66013-82.37211-35.4235-24.53362-6.273-46.39132,1.656-65.94523,16.7445-24.10505,18.60028-49.0505,30.72622-79.57223,19.63059C69.32435,181.53173,54.33872,155.70993,21.64245,155.26662Z" style="fill:#b2b2b2"/><path d="M29.83268,130.24905c32.6399,4.31149,45.67437,35.52614,73.6024,48.09411,21.23049,9.554,43.22377,6.99253,63.55959-3.39135,27.95209-14.27291,53.60324-24.211,83.13752-7.25337,25.85816,14.8469,36.30086,42.45151,67.695,48.37037-32.81052-4.32723-45.58279-35.47684-73.60492-48.08868-22.64266-10.19073-45.09189-6.212-66.52124,5.07058-26.417,13.90852-52.55562,21.42146-80.17062,5.56389C71.46971,163.64955,61.34194,136.18286,29.83268,130.24905Z" style="fill:#b2b2b2"/><path d="M16.06193,134.72846c35.46485,2.86664,51.242,35.84361,82.07323,47.87956,23.43746,9.14955,47.035,5.18093,68.41534-7.13984,29.38783-16.9352,56.52953-29.06576,89.33472-12.37994,28.72195,14.60894,41.50412,43.83142,75.71241,48.50111-35.64985-2.87428-51.14044-35.79541-82.07563-47.87356-24.99651-9.75948-49.00855-4.23617-71.52,9.1144-27.75093,16.45787-55.55152,25.99765-86.225,10.394C62.83,168.49885,50.39527,139.408,16.06193,134.72846Z" style="fill:#b2b2b2"/><path d="M27.36165,106.89454c33.98111,9.27957,43.29643,44.25208,71.09116,61.605,21.12915,13.19143,44.81479,13.64872,67.87177,5.574,31.69238-11.09891,60.32008-17.93418,89.18439,4.30408,25.2716,19.47028,32.36006,50.24173,64.78862,61.04562-34.15972-9.32085-43.20645-44.1866-71.0946-61.59958-22.53441-14.07017-46.90788-13.09069-71.25381-4.221-30.01239,10.93407-58.807,15.128-85.79532-5.66716C66.68457,148.31069,59.91007,117.73089,27.36165,106.89454Z" style="fill:#b2b2b2"/><path d="M37.21687,98.63938c32.30012,11.46524,38.5189,45.77291,64.1862,64.59046,20.75652,15.2173,44.275,16.035,68.482,9.20472,29.76-8.39715,57.85813-10.371,82.41437,11.64732,23.17326,20.77833,27.50733,50.78461,58.14258,63.59638-32.17812-11.41454-38.52121-45.76431-64.18991-64.58549-22.12944-16.22607-46.25673-15.5796-71.84457-8.14346-28.29687,8.22341-55.89869,8.03782-79.04431-12.71784C72.21988,141.47782,67.782,111.41441,37.21687,98.63938Z" style="fill:#b2b2b2"/><path d="M33.87793,106.724c32.74564,9.59092,40.844,43.34374,67.40781,60.61321,21.48147,13.9654,44.90351,13.46391,68.58257,5.32212,29.11093-10.00948,56.92892-13.54164,82.5672,6.97139,24.19438,19.35776,30.17909,48.94051,61.34517,59.96287-32.62154-9.54735-40.84586-43.33506-67.41122-60.60807C223.467,164.09413,199.52164,166.085,174.504,174.90612c-27.66632,9.755-55.11171,11.113-79.27734-8.22375C71.06334,147.34745,64.97224,117.71373,33.87793,106.724Z" style="fill:#b2b2b2"/><path d="M50.35227,95.665c29.54638,12.56815,33.39881,45.00322,56.32261,64.06674,18.53793,15.4162,40.48207,17.5261,63.50754,12.52409,28.3074-6.14945,54.69341-6.3879,76.39522,15.605,20.4796,20.75428,22.81578,49.05953,50.7284,62.79153-29.4352-12.51377-33.40146-44.99531-56.32637-64.06231-19.764-16.438-42.36113-17.21361-66.71237-11.7241-26.92934,6.07069-52.72778,4.31831-73.18282-16.41319C80.6314,137.72326,78.20141,109.35866,50.35227,95.665Z" style="fill:#b2b2b2"/><path d="M60.46281,86.52246c27.6647,14.90763,28.5005,46.86528,49.12639,67.50731,16.67966,16.69271,37.8764,20.7237,60.767,17.92078,28.14157-3.44589,53.87863-1.30386,73.05,22.08314,18.09165,22.06988,17.82134,49.8662,43.78907,65.76109-27.56125-14.84463-28.5038-46.85782-49.13045-67.50333-17.7826-17.79887-39.73584-20.58824-63.96237-17.42952-26.79143,3.49314-51.77671-.53626-69.84646-22.58173C86.18791,130.23685,86.37212,102.37424,60.46281,86.52246Z" style="fill:#b2b2b2"/><path d="M70.48639,70.75713c25.89776,18.58829,22.76984,51.19144,40.87386,74.67684,13.76242,17.85327,33.70945,25.71113,55.814,26.13347,30.38331.5805,56.82234,3.81109,74.2929,31.77781,15.296,24.48573,11.60408,52.82305,35.70416,72.21469-26.03624-18.67964-22.71416-51.10752-40.87848-74.67335-14.67729-19.04186-35.6609-25.8979-59.10955-26.05244-28.90627-.1905-54.65389-5.71421-70.98823-31.8652C90.7801,118.28984,94.6779,90.21411,70.48639,70.75713Z" style="fill:#b2b2b2"/><path d="M71.02791,51.41946c26.44843,22.79124,19.87243,58.05488,37.34337,85.43215,13.28116,20.81181,34.27911,31.31964,58.35229,33.92534,33.08919,3.58159,61.61836,9.67144,77.96339,41.876,14.31058,28.19605,7.53325,58.75132,31.9426,82.2445-26.59063-22.90432-19.81983-57.95793-37.34875-85.42879C225.117,187.2714,202.891,177.75587,177.32555,175.3119c-31.51571-3.0128-59.06809-11.53715-74.34981-41.65062C88.55413,105.24272,95.53067,74.9928,71.02791,51.41946Z" style="fill:#b2b2b2"/><path d="M73.81989,56.86858c25.65607,21.70857,19.6322,55.70918,36.68665,81.91,12.96455,19.91748,33.26762,29.84978,56.46223,32.14906,31.88156,3.16042,59.39558,8.77477,75.40815,39.6319,14.0195,27.01637,7.761,56.48661,31.46041,78.88854-25.79393-21.81619-19.58073-55.61631-36.6918-81.90672-13.82623-21.24338-35.30274-30.20986-59.93232-32.34052-30.36206-2.62658-56.957-10.59277-71.92791-39.44635C91.157,108.5249,97.60992,79.34686,73.81989,56.86858Z" style="fill:#b2b2b2"/><path d="M82.36662,54.56369c23.88631,22.50246,16.24306,55.34154,31.50848,81.77651,11.60455,20.09549,30.8843,30.83678,53.38074,34.28592,30.92192,4.74094,57.4575,11.64729,71.46468,42.56822,12.26372,27.07223,4.62746,55.48171,26.56985,78.5584-24.01514-22.61457-16.19771-55.2483-31.51368-81.77358-12.37573-21.43317-32.84992-31.2938-56.75432-34.65322-29.4681-4.14132-54.9851-13.293-68.08089-42.20615C96.58277,105.834,104.39337,77.71954,82.36662,54.56369Z" style="fill:#b2b2b2"/><path d="M103.49718,39.36737c19.83893,26.52039,6.53631,57.8409,17.12145,86.77356,8.04667,21.9942,25.34862,36.02171,47.11513,43.3582,29.9186,10.08418,55.10028,21.55932,63.65533,54.73331,7.49021,29.04484-5.03607,55.96274,12.77049,82.71637-19.94753-26.65422-6.50742-57.74032-17.12712-86.77154-8.581-23.458-27.22343-36.81748-50.40529-44.30932-28.57739-9.23555-52.35641-22.76605-60.35411-53.78562C108.7255,92.80866,121.37388,66.21435,103.49718,39.36737Z" style="fill:#b2b2b2"/><path d="M107.15794,47.74773c18.75736,24.83346,6.39408,54.32189,16.4666,81.46241,7.657,20.63184,23.976,33.73739,44.46095,40.53624,28.15709,9.34518,51.86918,20.018,60.05261,51.15278,7.16485,27.25942-4.48814,52.60754,12.36052,77.669-18.86-24.95875-6.36649-54.22752-16.47192-81.4605-8.16547-22.005-25.74113-34.477-47.55671-41.41561-26.89312-8.55361-49.29616-21.16391-56.94648-50.27668C112.30378,97.94122,124.0729,72.89664,107.15794,47.74773Z" style="fill:#b2b2b2"/><path d="M119.46955,23.45007c16.93254,30.51613-1.42025,61.31993,5.50712,93.03559,5.26608,24.10979,21.3306,41.22123,43.01,51.98335,29.79889,14.79279,54.454,30.36261,58.6573,66.217,3.68014,31.39164-13.23459,57.70958,1.54284,88.17955-17.02685-30.67135,1.43607-61.21082-5.51334-93.0343C217.05818,204.117,199.49894,187.512,176.364,176.386c-28.51957-13.71561-51.41726-31.23138-55.34577-64.75705C117.31081,79.9902,134.30689,54.0275,119.46955,23.45007Z" style="fill:#b2b2b2"/><path d="M114.74672,30.30929C132.46426,59.1781,115.98,89.828,124.04721,120.28578c6.13257,23.15361,22.43779,39.06166,43.91714,48.57412,29.5239,13.07511,54.09324,27.12263,59.6953,61.70952,4.90477,30.28189-10.376,56.52086,5.24985,85.43665-17.8156-29.01529-1.21331-59.41353-9.30647-89.975-6.5395-24.6945-24.2725-40.04787-47.17869-49.85125-28.23757-12.08509-51.18571-28.0943-56.42216-60.43485C115.06047,85.2247,130.43527,59.32673,114.74672,30.30929Z" style="fill:#b2b2b2"/><path d="M127.58617,37.45929c14.69246,27.76512-2.37452,55.15821,3.29254,83.82392,4.308,21.79127,18.459,37.47759,37.77651,47.55037,26.5524,13.84527,48.46184,28.29784,51.60346,60.63943,2.75058,28.31605-12.942,51.6979-.18821,79.38294-14.77456-27.90648,2.38682-55.05973-3.29815-83.82286-4.59362-23.24143-20.09879-38.49873-40.71968-48.925-25.42036-12.853-45.71348-29.02537-48.64942-59.26635C124.63252,88.30281,140.392,65.24211,127.58617,37.45929Z" style="fill:#b2b2b2"/><path d="M134.85944,31.05207c13.34,29.40269-5.8801,56.44068-1.85588,86.20379,3.05915,22.62549,16.59776,39.60226,35.78742,51.14246,26.37665,15.86229,47.952,32.05773,49.15576,65.43438,1.05392,29.22228-16.50567,52.2308-5.14963,81.43029-13.41536-29.55285,5.88656-56.33888,1.85006-86.20306-3.26161-24.13109-18.21633-40.75227-38.7211-52.73656-25.27721-14.7736-45.08693-32.63253-46.21083-63.84123C128.65459,83.03,146.26273,60.35512,134.85944,31.05207Z" style="fill:#b2b2b2"/><path d="M146.99663,14.65369c11.28,33.37011-12.52772,60.62848-11.39954,93.37565.85762,24.89392,13.70608,44.79683,33.28086,59.41334,26.906,20.09075,48.56376,40.02044,46.23681,76.38319-2.03732,31.8367-23.60388,54.90169-14.45536,87.83523-11.34552-33.54132,12.52366-60.51727,11.39314-93.37549-.91348-26.55036-15.3379-46.22142-36.29195-61.46318-25.831-18.78924-45.391-40.33249-43.2134-74.33316C134.60224,70.4023,156.18517,47.70479,146.99663,14.65369Z" style="fill:#b2b2b2"/><path d="M174.86894,29.13672c4.74919,31.19853-20.50418,51.535-24.61411,80.6013-3.1243,22.09578,5.10812,41.65771,20.09881,57.60446,20.60508,21.9192,36.6051,42.8781,28.8833,74.59552-6.76067,27.76957-29.38306,44.75591-26.44628,75.237-4.78028-31.35979,20.48326-51.43752,24.60844-80.60216,3.33326-23.56584-6.32566-43.16892-22.4357-59.8823-19.85962-20.60339-33.75738-42.65879-26.53558-72.31559C155.24315,76.38736,177.82269,59.72776,174.86894,29.13672Z" style="fill:#b2b2b2"/><path d="M161.62107,24.853c7.76383,31.66848-16.34937,54.925-17.899,85.216-1.178,23.02678,9.09752,42.39891,25.99468,57.42756,23.22556,20.65725,41.62352,40.75085,36.60133,74.10311C201.921,270.80061,180.20643,290.367,186.039,321.46423c-7.8107-31.83157,16.33682-54.82277,17.89311-85.21637,1.25752-24.55889-10.48983-43.84184-28.60958-59.55623-22.3371-19.37188-38.67273-40.7877-33.97509-71.97329C145.78064,75.288,167.48121,56.06184,161.62107,24.853Z" style="fill:#b2b2b2"/><path d="M173.79005,20.42532c5.28359,33.04682-21.33511,54.8128-25.46307,85.66872-3.138,23.45623,5.74712,44.13541,21.77041,60.9273,22.02441,23.08086,39.15777,45.17989,31.22062,78.87582-6.94921,29.50181-30.80446,47.69431-27.44852,79.99468-5.31784-33.21758,21.3137-54.70926,25.457-85.66959,3.34794-25.01681-7.05025-45.72832-24.26663-63.32431-21.22345-21.69142-36.13616-44.96989-28.7129-76.47667C153.35247,70.68781,177.16486,52.84215,173.79005,20.42532Z" style="fill:#b2b2b2"/><path d="M206.58944,17.365c-1.70819,34.84092-33.53253,51.3245-44.36954,81.90955-8.23814,23.25032-3.61683,46.2503,9.11991,66.81843,17.507,28.27141,30.23613,54.491,14.904,87.15463-13.42375,28.598-41.662,42.03031-45.17605,75.6959,1.70994-35.02244,33.48846-51.22349,44.36359-81.91173,8.78741-24.797,2.6298-48.15485-11.15114-69.79936-16.98842-26.68223-27.19934-53.62786-12.8615-84.16905C174.94958,64.24111,203.06967,51.15338,206.58944,17.365Z" style="fill:#b2b2b2"/><path d="M153.19342,329.23325c10.5568-104.41957,25.03844-208.53019,41.2735-312.15318C183.93085,121.48822,169.40134,225.6192,153.19342,329.23325Z" style="fill:#e5e5e5"/><path d="M142.65931,315.58794c17.85514-95.54292,39.3083-190.49578,62.3417-284.8624C187.16589,126.25953,165.667,221.22746,142.65931,315.58794Z" style="fill:#e5e5e5"/><path d="M153.33767,328.96216c10.46622-104.23588,24.85031-208.166,40.985-311.61067C183.87709,121.576,169.44523,225.52647,153.33767,328.96216Z" style="fill:#e5e5e5"/><path d="M137.66929,311.10983C158.941,218.44877,183.70551,126.5083,209.991,35.204,188.73917,127.8571,163.92934,219.81047,137.66929,311.10983Z" style="fill:#e5e5e5"/><path d="M133.94084,307.19671C157.777,217.0668,185.01309,127.75576,213.71937,39.11725,189.903,129.24,162.62205,218.56224,133.94084,307.19671Z" style="fill:#e5e5e5"/><path d="M111.29158,298.80805c39.09948-85.0038,81.41941-168.612,125.077-251.302C197.28987,132.50622,154.92368,216.11778,111.29158,298.80805Z" style="fill:#e5e5e5"/><path d="M108.83653,316.795c40.36723-97.03911,84.40732-192.64512,129.987-287.27579C198.47949,126.55339,154.38761,222.16506,108.83653,316.795Z" style="fill:#e5e5e5"/><path d="M91.036,299.28278C143.62243,213.54825,199.468,129.71447,256.624,47.03161,204.0602,132.76492,148.16483,216.59634,91.036,299.28278Z" style="fill:#e5e5e5"/><path d="M93.62567,299.01136C144.49209,213.51072,198.6074,129.84653,254.03422,47.30317,203.19019,132.80229,149.0256,216.46482,93.62567,299.01136Z" style="fill:#e5e5e5"/><path d="M62.45129,286.13127C134.35343,208.575,209.224,133.65073,285.20851,60.18339,213.33,137.74305,138.4085,212.65464,62.45129,286.13127Z" style="fill:#e5e5e5"/><path d="M84.91938,280.71679C141.9613,207.22815,201.80677,135.81755,262.7403,65.598,205.71933,139.0878,145.82832,210.49118,84.91938,280.71679Z" style="fill:#e5e5e5"/><path d="M58.41767,284.88089C133.033,208.07533,210.59093,134.00411,289.24189,61.434,214.65037,138.24357,137.04127,212.30073,58.41767,284.88089Z" style="fill:#e5e5e5"/><path d="M60.11566,261.19236c73.96865-60.98659,150.28609-119.24991,227.42812-176.06972C213.59593,146.11514,137.23434,204.36091,60.11566,261.19236Z" style="fill:#e5e5e5"/><path d="M49.17048,272.377c81.03275-68.66311,164.708-134.34442,249.31835-198.43891C217.47921,142.60744,133.75474,208.27,49.17048,272.377Z" style="fill:#e5e5e5"/><path d="M43.39069,258.26163c85.17275-59.376,172.64321-115.60715,260.87779-170.20808C219.11766,147.43772,131.60107,203.64609,43.39069,258.26163Z" style="fill:#e5e5e5"/><path d="M34.50907,244.70836C125.87715,194.18151,219.21622,147.03916,313.15,101.6069,221.803,152.14423,128.42012,199.259,34.50907,244.70836Z" style="fill:#e5e5e5"/><path d="M30.66014,226.89215c94.29724-38.73426,190.12566-73.96435,286.3386-107.469C222.72077,158.17,126.853,193.36835,30.66014,226.89215Z" style="fill:#e5e5e5"/><path d="M19.66827,215.21452c101.86029-31.17811,204.97467-58.56212,308.32218-84.11366C226.149,162.29388,122.99675,189.6411,19.66827,215.21452Z" style="fill:#e5e5e5"/><path d="M17.01276,207.97613c103.77779-26.40934,208.63242-48.9487,313.633-69.63684C226.88622,164.76451,121.99533,187.2651,17.01276,207.97613Z" style="fill:#e5e5e5"/><path d="M24.05018,188.27228c99.49176-13.13621,199.559-22.55211,299.558-30.2291C224.13166,171.19616,124.03493,180.572,24.05018,188.27228Z" style="fill:#e5e5e5"/><path d="M37.027,190.932c90.79055-14.64285,182.20585-25.893,273.60428-35.54846C219.85507,170.04133,128.41171,181.25553,37.027,190.932Z" style="fill:#e5e5e5"/><path d="M24.8716,164.31732c99.43453,2.84233,198.84527,9.41613,297.91488,17.68085C223.36417,179.17465,123.93091,172.557,24.8716,164.31732Z" style="fill:#e5e5e5"/><path d="M36.2992,157.4011c91.96155,7.68462,183.71147,18.82447,275.05951,31.51329C219.40753,181.24782,127.639,170.0662,36.2992,157.4011Z" style="fill:#e5e5e5"/><path d="M17.92,166.93628c104.01281.955,208.07641,5.8116,311.81767,12.44291C225.73806,178.44361,121.65,173.54162,17.92,166.93628Z" style="fill:#e5e5e5"/><path d="M29.59483,148.32341c96.61447,13.59608,192.7995,30.82681,288.46793,49.66864C221.45815,184.41564,125.25594,167.1397,29.59483,148.32341Z" style="fill:#e5e5e5"/><path d="M27.85866,140.23968c97.93669,18.94691,195.24437,41.58251,291.94011,65.83606C221.87112,187.14944,124.54827,164.46677,27.85866,140.23968Z" style="fill:#e5e5e5"/><path d="M41.14586,135.82034c89.17352,22.1635,177.5901,47.68974,265.36555,74.67469C217.34521,188.35092,128.917,162.78067,41.14586,135.82034Z" style="fill:#e5e5e5"/><path d="M38.91941,127.30141c90.83133,27.79428,180.69593,59.01814,269.8183,91.71249C217.91286,191.24005,128.03864,159.9701,38.91941,127.30141Z" style="fill:#e5e5e5"/><path d="M38.9671,97.99332c91.39926,47.32385,181.09984,98.11487,269.72277,150.32861C217.29355,201.0211,127.59168,150.17909,38.9671,97.99332Z" style="fill:#e5e5e5"/><path d="M43.77774,81.36121C132.31187,139.86583,218.72563,201.73946,303.87909,264.954,215.34545,206.47327,128.936,144.54722,43.77774,81.36121Z" style="fill:#e5e5e5"/><path d="M54.82492,98.51014C135.64709,145.81408,214.76253,196.1885,292.83177,247.805,212.01118,200.52206,132.897,150.10125,54.82492,98.51014Z" style="fill:#e5e5e5"/><path d="M49.333,70.83244c85.0479,65.63379,167.70515,134.51179,248.99054,204.65011C213.27437,209.873,130.6253,140.94234,49.333,70.83244Z" style="fill:#e5e5e5"/><path d="M66.46656,61.78817C140.283,133.79894,211.46036,208.638,281.18987,284.52672,207.3695,212.53887,136.20581,137.65054,66.46656,61.78817Z" style="fill:#e5e5e5"/><path d="M75.732,64.03633C143.32865,134.73867,208.33007,208.035,271.92435,282.27844,204.32321,211.5977,139.33634,138.25517,75.732,64.03633Z" style="fill:#e5e5e5"/><path d="M84.14073,52.96825c62.2202,78.24928,121.55762,158.89717,179.37474,240.37815C201.28873,215.11869,141.97043,134.42509,84.14073,52.96825Z" style="fill:#e5e5e5"/><path d="M80.45919,43.379c64.86948,84.5634,126.62161,171.63,186.73772,259.55644C202.32005,218.395,140.58916,131.28,80.45919,43.379Z" style="fill:#e5e5e5"/><path d="M90.53936,48.27557c58.05261,81.507,113.09681,165.259,166.57729,249.76324C199.05636,216.55306,144.03369,132.75639,90.53936,48.27557Z" style="fill:#e5e5e5"/><path d="M115.43462,39.09917c41.65211,88.13081,80.03373,177.8971,116.78669,268.1159C190.55819,219.10328,152.20489,129.29786,115.43462,39.09917Z" style="fill:#e5e5e5"/><path d="M123.36183,43.74582c36.27492,85.19682,69.38491,171.825,100.9322,258.82245C188.008,217.38911,154.9263,130.72481,123.36183,43.74582Z" style="fill:#e5e5e5"/><path d="M136.27982,38.83493c27.76785,88.73336,52.23106,178.582,75.09616,268.64408C183.59522,218.76218,159.16391,128.8803,136.27982,38.83493Z" style="fill:#e5e5e5"/><path d="M136.29408,27.302c27.99434,96.41822,52.396,193.96661,75.06759,291.70973C183.353,222.61109,158.98653,125.02751,136.29408,27.302Z" style="fill:#e5e5e5"/><path d="M128.69,19.00047c33.231,101.79407,62.67208,204.91918,90.27579,308.31269C185.72012,225.5383,156.3153,122.37445,128.69,19.00047Z" style="fill:#e5e5e5"/><path d="M167.1587,29.29489c7.38776,95.72184,11.19181,191.80045,13.33828,287.72369C173.09241,221.31038,169.32816,125.20569,167.1587,29.29489Z" style="fill:#e5e5e5"/><path d="M160.71083,29.98344c11.67,95.131,19.78205,190.779,26.234,286.34643C175.25866,221.21319,167.18515,125.53747,160.71083,29.98344Z" style="fill:#e5e5e5"/><path d="M187.32149,24.77745c-5.95479,99.14448-15.63275,198.14819-26.98752,296.75843C166.26959,222.403,175.992,123.37821,187.32149,24.77745Z" style="fill:#e5e5e5"/><path d="M150.97869,312.90677c2.31965-26.46933,23.64492-43.90841,18.28626-72.4709-4.57321-24.376-12.04331-39.73825.65643-64.25508,13.77669-26.59584,11.26394-40.47411,5.97572-68.60321C170.105,76.768,192.65024,61.28145,196.6749,33.40631c-2.31483,26.46865-23.63854,43.91031-18.282,72.47012,4.57142,24.37391,12.0447,39.74347-.657,64.25761-13.77993,26.5951-11.27555,40.47039-5.98592,68.60273C177.54292,269.5462,154.99676,285.03052,150.97869,312.90677Z" style="fill:#fff"/><path d="M138.48677,315.66676c4.7085-27.68994,28.61191-43.85154,24.83071-74.51116-3.4178-27.713-6.25842-44.38577,9.08442-69.07919,8.60861-13.85506,14.63439-26.21935,13.68558-43.25691-.53294-9.56984-4.729-18.52408-5.01166-28.14985-.87049-29.63976,22.00758-43.37163,28.091-70.0234-4.70336,27.68968-28.60492,43.85392-24.82628,74.51058,3.41575,27.71248,6.25881,44.38937-9.08685,69.08086-8.61058,13.8546-14.63947,26.21748-13.69317,43.25643.53145,9.56945,4.72831,18.52427,5.0111,28.14942C167.44243,275.283,144.56386,289.01357,138.48677,315.66676Z" style="fill:#fff"/><path d="M130.99128,323.3734c5.96535-28.96086,31.51709-44.7765,29.26746-77.07866-2.08514-29.9402-5.94116-48.39614,12.09294-74.33927,9.70763-13.965,16.45187-27.93823,16.14781-45.48693-.17665-10.19578-4.34407-19.86731-4.28939-30.11485.16768-31.42548,25.031-45.41769,32.45223-73.41415-5.95992,28.96064-31.51034,44.77938-29.26274,77.07834,2.08334,29.93851,5.94185,48.401-12.09559,74.34082-9.70993,13.96394-16.45786,27.93643-16.15586,45.48614.17544,10.19532,4.34337,19.86747,4.28881,30.11436C163.26962,281.38434,138.40583,295.37522,130.99128,323.3734Z" style="fill:#fff"/><path d="M131.64607,315.20628c6.05125-27.84336,30.8854-42.60354,28.45927-73.97834-2.07189-26.79369-5.60766-43.99869,10.80124-67.337,9.95726-14.16218,17.5052-26.41338,17.3195-44.87-.0973-9.67177-3.98326-18.89324-3.75841-28.61026.68629-29.65828,24.2374-42.91645,31.53988-69.304-6.046,27.84337-30.87846,42.60616-28.45478,73.978,2.06984,26.79171,5.608,44.00347-10.803,67.33915-9.95962,14.16217-17.51084,26.40928-17.32792,44.86866.09583,9.6713,3.98229,18.8934,3.75786,28.60979C162.49469,275.56,138.94218,288.81736,131.64607,315.20628Z" style="fill:#fff"/><path d="M121.04388,303.50708c8.80358-27.47332,34.0906-39.62586,33.39865-71.74332-.54181-25.14825,1.17987-40.22262,18.17926-59.82423,10.61134-12.23569,18.0037-24.50426,18.87041-41.37781.51836-10.09165-2.13655-19.7177-.26618-29.78606,4.59551-24.738,26.83825-35.679,35.38374-57.96994-8.79825,27.47356-34.08425,39.6287-33.39441,71.74289.54018,25.14694-1.17979,40.2272-18.18175,59.826-10.61372,12.2348-18.0085,24.5017-18.87763,41.37649-.51971,10.09054,2.13587,19.71764.26646,29.78508C151.8289,270.27384,129.58386,281.21472,121.04388,303.50708Z" style="fill:#fff"/><path d="M99.97656,303.66614c12.18491-25.86277,40.18568-35.36894,44.86278-66.49439,4.299-28.609,4.97724-45.17521,27.88189-65.46876,12.36136-10.95217,21.56914-21.69316,25.32688-38.80294,2.46938-11.24361.58124-22.73062,4.194-33.86144,8.29567-25.55882,33.31813-34.01426,45.435-56.392-12.17987,25.86405-40.17942,35.3729-44.85827,66.495-4.30073,28.60709-4.97775,45.1797-27.88474,65.46973-12.36354,10.9511-21.57351,21.68953-25.33421,38.8004-2.47091,11.2424-.5821,22.73052-4.19368,33.8606C137.11268,272.8311,112.08783,281.28606,99.97656,303.66614Z" style="fill:#fff"/><path d="M102.58912,297.761c11.35169-23.82057,37.45959-33.19238,42.889-61.214,4.881-25.19095,2.80777-43.11313,23.56811-61.90333,10.88157-9.84893,20.01621-16.38407,25.53289-31.26883,4.46162-12.03806,2.29462-24.25525,5.39427-36.458C206.93,79.53,232.47114,71.566,245.06458,48.55167c-11.347,23.8218-37.45431,33.196-42.88476,61.2149-4.88171,25.18755-2.80855,43.11869-23.56952,61.90541-10.88317,9.84824-20.02113,16.37755-25.54076,31.26422-4.46322,12.0375-2.29609,24.25541-5.39509,36.45822C140.7194,266.78106,115.17688,274.74407,102.58912,297.761Z" style="fill:#fff"/><path d="M82.92251,282.61354c14.83342-20.84739,40.79809-25.08355,51.54322-50.32973,9.97634-23.43984,8.83218-41.72053,32.3992-57.27826,11.624-7.67355,21.35954-11.55955,29.72938-23.67657,8.24314-11.93359,8.16964-24.41933,13.65235-37.27236,11.32875-26.55785,37.8302-29.52491,54.48457-50.35756-14.829,20.84908-40.79442,25.08818-51.53923,50.33157-9.97617,23.43758-8.83454,41.72406-32.401,57.27954C169.1655,178.98382,159.42977,182.864,151.0564,194.982c-8.24548,11.93286-8.17253,24.41762-13.655,37.27157C126.07388,258.81152,99.57176,261.77714,82.92251,282.61354Z" style="fill:#fff"/><path d="M71.76213,283.72216c16.81987-21.19587,44.4759-24.23222,57.22164-50.3,11.8338-24.20268,11.63753-43.57241,37.38818-58.6983,12.701-7.46056,23.198-11.02559,32.70826-23.35909,9.36633-12.1468,9.98-25.33715,16.48188-38.6078,13.43471-27.42076,41.58738-29.08708,60.32956-50.16657-16.81531,21.1979-44.47228,24.23731-57.21753,50.30218-11.8335,24.20031-11.64022,43.576-37.39011,58.69955-12.70266,7.46058-23.19947,11.01951-32.71355,23.3538-9.36875,12.1459-9.98292,25.33519-16.48464,38.60682C118.6524,260.97367,90.49911,262.63844,71.76213,283.72216Z" style="fill:#fff"/><path d="M81.80062,274.94793c15.12669-19.474,40.3935-22.61977,51.70433-46.4105,9.53177-20.04871,9.303-37.88361,29.59959-51.52245,10.83473-7.28071,21.87293-10.35987,30.89221-20.51381,10.44656-11.76078,10.88373-24.29027,16.83073-37.78075,11.38287-25.8215,38.02835-27.83434,55.02572-47.35587C250.73067,90.8404,225.46306,93.98879,214.15265,117.777c-9.53216,20.04814-9.30534,37.88454-29.60141,51.52313-10.8359,7.28152-21.87341,10.35628-30.89552,20.51039-10.44934,11.7604-10.88835,24.28666-16.835,37.779C125.43991,253.4115,98.79308,255.42269,81.80062,274.94793Z" style="fill:#fff"/><path d="M64.6505,280.183c18.12978-20.642,46.44052-22.44439,60.61639-48.14317,11.94617-21.65665,12.88892-41.50645,36.37652-55.312,12.53818-7.3697,25.02061-10.05316,35.73265-20.74009,12.4072-12.37811,13.73441-26.283,21.25369-40.88676C233.02206,87.14859,262.79,86.69864,283.00337,66.1294,264.87809,86.77369,236.56628,88.579,222.39105,114.275c-11.94656,21.656-12.89157,41.50733-36.3786,55.31264-12.53953,7.37054-25.02089,10.04915-35.73609,20.73607-12.41026,12.3775-13.73931,26.27867-21.25832,40.88456C114.628,259.16131,84.85866,259.60934,64.6505,280.183Z" style="fill:#fff"/><path d="M54.44518,265.331c20.15759-18.11732,48.10181-16.59623,64.973-40.12655,14.21753-19.82926,17.44565-39.16591,42.05839-49.96381,13.1388-5.76415,25.67891-6.94383,37.41384-16.16975,13.592-10.68591,16.50652-24.15391,25.56836-37.58769,17.34486-25.713,46.55961-22.69774,68.75-40.50189-20.15344,18.1201-48.099,16.60171-64.96928,40.12937-14.21784,19.82857-17.44835,39.16647-42.0605,49.96418-13.14021,5.76481-25.67872,6.93986-37.41674,16.16541-13.59489,10.685-16.51082,24.14911-25.57264,37.585C105.84686,250.53919,76.631,247.52191,54.44518,265.331Z" style="fill:#fff"/><path d="M52.22051,245.29218c21.98652-15.36827,49.73356-10.45832,67.87778-33.36017,15.07873-19.03255,23.26-34.24788,48.90963-39.82528,13.60185-2.95766,25.813-4.9215,37.07642-14.38054,9.70914-8.15375,13.84367-19.60242,22.34367-28.61588,19.05237-20.20327,45.06247-14.51372,67.00545-28.09015-21.98305,15.37169-49.73,10.46449-67.87438,33.3628-15.07848,19.02915-23.26315,34.25211-48.912,39.82655-13.60227,2.95627-25.81487,4.91413-37.08092,14.37278-9.71026,8.15246-13.84516,19.6017-22.34445,28.61563C100.17113,237.402,74.15974,231.71086,52.22051,245.29218Z" style="fill:#fff"/><path d="M38.79,251.45154c24.44034-16.72361,55.01689-10.99834,75.29847-36.08067,16.855-20.84465,26.05377-37.55121,54.43022-43.4262,15.04789-3.11548,28.54959-5.14914,41.08754-15.46733,10.80778-8.89434,15.49784-21.48731,24.98027-31.344,21.25444-22.09333,49.905-15.52654,74.27756-30.27259-24.43656,16.72743-55.01305,11.0052-75.29475,36.08363-16.85468,20.84088-26.05728,37.55583-54.43288,43.42757-15.04834,3.11393-28.55161,5.141-41.09243,15.45871-10.809,8.89291-15.49948,21.4865-24.98113,31.34371C91.81042,243.26861,63.15848,236.70006,38.79,251.45154Z" style="fill:#fff"/><path d="M51.31158,248.47149c22.11351-15.98264,50.41114-11.43482,68.496-35.01742,15.02944-19.59829,23.10548-35.20369,49.10158-41.28783,13.7856-3.22639,26.17279-5.41972,37.47582-15.22046,9.74327-8.4483,13.76423-20.158,22.264-29.46122,19.05183-20.85272,45.5955-15.48415,67.69351-29.6438-22.10992,15.98607-50.40743,11.441-68.49253,35.02-15.02924,19.59483-23.10859,35.208-49.104,41.28916-13.78606,3.225-26.17484,5.41225-37.48053,15.21264-9.74442,8.447-13.76575,20.1573-22.26478,29.461C99.95071,239.67709,73.40569,234.30694,51.31158,248.47149Z" style="fill:#fff"/><path d="M25.18432,225.04357c28.35093-12.33895,57.86289-.91827,83.2337-23.16391,19.71024-17.28235,32.43852-30.52558,60.38119-30.93258,15.653-.228,29.15321.26593,43.63912-7.51122,11.74632-6.30632,18.15432-16.8926,28.58193-24.74435,25.38752-19.11621,53.83415-7.20081,81.44958-17.42286-28.34744,12.34345-57.86079.92514-83.23039,23.16735-19.70845,17.27893-32.44363,30.52957-60.38426,30.93362-15.65318.22637-29.15362-.274-43.64233,7.50176-11.74719,6.30441-18.15632,16.89143-28.58322,24.74368C81.24392,226.73242,52.79673,214.81518,25.18432,225.04357Z" style="fill:#fff"/><path d="M32.53162,222.78821c27.97152-12.23877,56.3539-1.09659,80.82887-23.844,17.40412-16.17564,30.61343-27.33065,55.67992-27.88007,15.19246-.333,27.2568.58318,41.49641-7.22578,11.02193-6.04439,17.429-16.08854,27.14175-23.59031,24.01068-18.54491,51.16033-6.93664,77.444-16.72408-27.92056,12.22241-56.3659,1.0249-80.82554,23.84706-18.52981,17.28931-31.661,27.38547-58.13811,27.74407-30.90657.41861-42.92028,12.39533-65.22122,30.14976C86.618,224.62652,59.34414,212.7966,32.53162,222.78821Z" style="fill:#fff"/><path d="M42.64949,215.00307c26.03287-10.50217,51.8201.49437,74.91966-19.75874,16.42607-14.402,28.86317-24.30164,51.91464-24.1384,28.57779.20237,40.75456-8.45677,62.08334-25.08364,22.72252-17.71336,48.45992-6.22818,73.43768-14.7132-26.02981,10.50634-51.81791-.488-74.91669,19.76166-16.42512,14.39919-28.86734,24.30512-51.91752,24.13941-28.57869-.20546-40.75634,8.44543-62.08742,25.07458C93.36111,217.99827,67.62539,206.51207,42.64949,215.00307Z" style="fill:#fff"/><path d="M39.233,207.43328c26.02569-8.74089,50.73951,3.72356,74.91831-14.01661,18.83629-13.82034,30.27278-24.255,55.42538-22.58566,26.11476,1.73316,39.83951-3.16228,60.37066-18.69566,25.31825-19.15519,50.74456-5.64145,78.47431-13.25742-26.02278,8.74507-50.73833-3.71724-74.91567,14.01988-18.83456,13.81752-30.27771,24.25823-55.42816,22.58634-26.11469-1.736-39.84155,3.15085-60.375,18.68609C92.38489,213.32533,66.96106,199.8107,39.233,207.43328Z" style="fill:#fff"/><path d="M27.05878,200.43652c27.36183-7.2327,53.16857,7.67164,79.412-8.38374,22.99679-14.06916,36.2581-25.21753,65.359-21.18,28.23209,3.917,42.646-3.34159,65.72308-17.70336,27.93174-17.383,53.87505-1.30736,83.04315-7.29434-27.35959,7.23734-53.16729-7.66426-79.40954,8.38759-22.99668,14.06659-36.26176,25.22-65.36175,21.17938-28.2317-3.92007-42.64786,3.33-65.72677,17.6939C82.167,210.51966,56.22529,194.44265,27.05878,200.43652Z" style="fill:#fff"/><path d="M23.20892,190.42031c30.34267-5.79835,55.54,11.58586,85.145-5.39083,22.96265-13.16768,38.95775-19.38416,66.01091-13.6501,30.396,6.44259,44.10545-4.43044,69.8901-16.38177,28.53468-13.226,51.734,4.6823,80.2051.87777-30.42549,5.81981-55.528-11.64039-85.14242,5.39461-24.14671,13.88983-40.2758,19.20732-68.35253,12.96719-28.41959-6.31633-42.73864,5.23856-66.42189,16.4879C75.69112,204.42957,52.03831,186.56094,23.20892,190.42031Z" style="fill:#fff"/><path d="M19.0401,158.878c29.626.51365,50.68519,22.89357,81.94243,14.11469,25.45687-7.14979,42.56015-15.40494,69.23268-3.88082,11.00733,4.75581,19.88053,10.10845,32.4108,11.01485,17.063,1.23427,27.41822-5.62263,43.17113-9.74421,33.07281-8.65314,52.05409,14.792,82.81683,17.05141-29.62489-.50834-50.68645-22.88593-81.94111-14.11016-25.45518,7.14738-42.56537,15.407-69.23563,3.88042-11.00862-4.75779-19.87586-10.1119-32.40936-11.02075-17.06464-1.23743-27.4179,5.61631-43.17283,9.73889C68.7824,184.57637,49.80365,161.13009,19.0401,158.878Z" style="fill:#fff"/><path d="M15.91289,152.0192c30.29888,1.77186,50.96834,25.57195,83.32214,17.90364,27.99407-6.635,45.16421-13.51343,73.32558.2537,29.6971,14.51789,46.01344,8.91694,76.38649,2.88222,33.30887-6.618,52.2277,17.72221,82.79466,21.23415-30.298-1.76638-50.96992-25.56419-83.321-17.89894-27.993,6.63266-45.16888,13.51468-73.32812-.25518-29.69622-14.52145-46.01062-8.92938-76.38655-2.89263C65.39777,179.86567,46.48052,155.52386,15.91289,152.0192Z" style="fill:#fff"/><path d="M14.96458,161.225c29.89284.00944,51.52484,22.20337,83.0122,13.40241,29.40315-8.21841,46.537-15.53364,76.7473-3.1917,30.90908,12.6274,45.77334,3.98555,75.36518-3.09941,32.6574-7.81892,51.974,15.02485,82.60088,16.7508-29.8916-.00411-51.52634-22.196-83.01091-13.39776-29.40277,8.21653-46.541,15.53467-76.74938,3.18938-30.90808-12.63124-45.77244-3.99726-75.36606,3.09011C64.90734,185.78973,45.59143,162.94366,14.96458,161.225Z" style="fill:#fff"/><path d="M22.87836,129.51334c29.17008,6.1199,46.13121,32.362,78.66255,29.61264,31.26343-2.64223,48.87384-4.60477,75.46515,14.13545,28.199,19.87321,49.03728,8.69239,79.23627,11.10479,28.55607,2.28117,42.37346,25.39534,68.5341,32.43257-29.17015-6.11448-46.13381-32.3547-78.6621-29.60789-31.26273,2.63995-48.87808,4.60578-75.46615-14.13911C142.45143,153.17276,121.613,164.35,91.41291,161.94,62.85747,159.6612,49.04,136.54415,22.87836,129.51334Z" style="fill:#fff"/><path d="M23.34315,139.74041c29.335,4.24956,46.46263,28.94452,78.84423,24.13941,27.65349-4.10351,45.2498-9.027,70.665,6.29939,15.42244,9.3004,28.68614,16.2399,47.82558,14.70158,10.02955-.80612,19.31561-5.511,29.41563-5.9861,30.82724-1.45012,46.30265,22.0229,74.21816,27.677-29.33464-4.24416-46.46484-28.93713-78.84351-24.13478-27.65158,4.10123-45.25474,9.02772-70.6673-6.301-15.42259-9.30286-28.68229-16.24606-47.82475-14.71042-10.02919.80456-19.31586,5.51-29.41519,5.9855C66.7343,168.86236,51.2596,145.38784,23.34315,139.74041Z" style="fill:#fff"/><path d="M46.29165,116.96173c26.94968,9.54452,38.22887,34.95716,70.06364,35.23516,24.92691.21768,39.80721,2.37527,58.7137,19.802,11.80178,10.87812,23.73269,18.56865,40.42082,19.93333,9.98076.81618,19.59551-1.5249,29.51263.62981,24.36646,5.29416,34.53688,27.65495,56.36084,36.78836-26.95007-9.53924-38.23187-34.951-70.06333-35.231-24.92556-.21926-39.81175-2.37533-58.71534-19.80456-11.80083-10.88044-23.73-18.57332-40.41931-19.94043-9.97961-.81748-19.59541,1.52422-29.51166-.62952C78.28746,148.45279,68.11722,126.08972,46.29165,116.96173Z" style="fill:#fff"/><path d="M41.97821,120.13838c27.78348,8.82868,40.12567,34.35151,72.5788,33.57353,25.41107-.60917,40.648,1.09362,60.49719,18.22351,12.39023,10.69279,24.8058,18.13271,41.85871,18.96715,10.19893.49906,19.91958-2.20735,30.09828-.342,25.00914,4.58312,36.11961,27.03266,58.66561,35.61325-27.78371-8.82329-40.12853-34.34508-72.57835-33.56925-25.40976.60752-40.65264-1.09353-60.499-18.226-12.38934-10.6952-24.80323-18.13757-41.8574-18.97445-10.1978-.50042-19.91951,2.20666-30.09728.3423C75.636,151.16527,64.52566,128.71339,41.97821,120.13838Z" style="fill:#fff"/><path d="M51.83463,107.21646c23.4916,10.51578,32.48054,35.34009,60.1126,40.017,26.25634,4.44405,42.09356,1.82089,61.769,23.10688,10.03886,10.8606,18.37634,19.33068,33.5604,23.33147,11.00283,2.89909,22.36739.92633,33.36075,3.82069,25.454,6.7016,33.31437,30.30509,55.18308,41.60327C272.328,228.5846,263.33611,203.76081,235.7071,199.0829c-26.25391-4.44509-42.09814-1.82155-61.77037-23.10882-10.038-10.86215-18.37191-19.33527-33.55715-23.33873-11.00218-2.90063-22.36721-.928-33.36045-3.82095C81.56506,142.116,73.70522,118.509,51.83463,107.21646Z" style="fill:#fff"/><path d="M55.01321,95.32225c22.35007,12.36408,29.47776,37.64112,55.73029,45.45434,24.37419,7.2542,42.3779,4.05934,60.46529,25.68237,8.92126,10.66513,13.87283,19.88394,26.83488,26.82059,12.76582,6.83163,25.14216,5.35177,38.50892,9.34171,27.61933,8.24431,33.54869,34.19679,56.08933,48.36873-22.35124-12.35952-29.48193-37.637-55.73166-45.45017-24.37193-7.2543-42.38166-4.06129-60.46675-25.684-8.92153-10.66666-13.8674-19.88631-26.83077-26.82634-12.76537-6.834-25.14079-5.35483-38.50844-9.34444C83.485,135.442,77.557,109.4887,55.01321,95.32225Z" style="fill:#fff"/><path d="M45.90441,79.59169c24.19446,15.06279,30.68366,43.63962,59.48842,53.85564,26.74382,9.48508,46.98962,6.96014,65.90166,32.09537,9.328,12.39746,14.31563,22.955,28.36079,31.43,13.83255,8.34673,27.709,7.4093,42.37456,12.624,30.30305,10.775,35.41808,40.03557,59.72094,57.12388-24.196-15.05777-30.68854-43.63522-59.49019-53.85107-26.74129-9.48506-46.9937-6.96253-65.90319-32.09725-9.32822-12.39917-14.30944-22.9573-28.35588-31.43618-13.83191-8.34937-27.70728-7.41262-42.37387-12.627C75.32456,125.93548,70.21109,96.67406,45.90441,79.59169Z" style="fill:#fff"/><path d="M73.52621,70.86113c19.34459,16.98679,21.03628,43.51558,45.119,56.79682,20.2948,11.19224,38.89542,12.07376,51.83437,34.08182,6.90708,11.74836,9.42285,23.44493,19.43821,33.48178C201.5181,206.8467,214.548,208.089,228.23337,215.1337c26.19456,13.48383,26.619,41.37823,45.89567,60.31749-19.34675-16.98256-21.04114-43.51236-45.12129-56.793-20.29418-11.19261-38.89625-12.07624-51.835-34.08376-6.90786-11.74964-9.41908-23.44521-19.43443-33.485-11.59971-11.628-24.62612-12.8721-38.31348-19.91649C93.2297,117.69122,92.807,89.7955,73.52621,70.86113Z" style="fill:#fff"/><path d="M68.65419,58.6156c20.38176,19.11586,21.2736,47.95554,46.92728,63.22,21.61864,12.8635,41.766,14.48125,55.0201,38.81661,7.07531,12.99072,9.38859,25.76911,19.89675,37.01364,12.17106,13.024,26.26223,14.835,40.85819,22.964,27.93744,15.5593,27.406,45.83538,47.64461,67.067-20.38425-19.11135-21.279-47.95222-46.92986-63.2159-21.618-12.86387-41.76682-14.484-55.02067-38.81873-7.07611-12.99213-9.38449-25.76927-19.89254-37.017-12.17034-13.027-26.25768-14.83988-40.8558-22.96865C88.36406,110.11946,88.89749,79.842,68.65419,58.6156Z" style="fill:#fff"/><path d="M73.72065,69.96057c19.32182,17.15078,20.877,43.78253,44.9737,57.24009,20.30652,11.34083,38.96823,12.32535,51.83479,34.48078,6.86843,11.827,9.33029,23.5785,19.32719,33.70465,11.5789,11.72858,24.64822,13.04529,38.34421,20.18836,26.21484,13.67221,26.491,41.6676,45.73418,60.7774-19.324-17.14655-20.882-43.77933-44.976-57.23628-20.3059-11.3412-38.96905-12.32784-51.83536-34.48273-6.86921-11.8283-9.32652-23.57875-19.3234-33.70786-11.57831-11.73146-24.64413-13.04989-38.3421-20.19271C93.24238,117.06218,92.968,89.06548,73.72065,69.96057Z" style="fill:#fff"/><path d="M78.24571,65.51467c19.6065,19.01271,20.05364,47.6978,46.44953,61.4155,21.93628,11.40008,38.72539,16.64188,49.25142,41.20611,5.5819,13.02629,9.9019,24.85415,21.53159,34.288,10.02486,8.13205,22.26757,10.05546,32.91847,16.81285,23.87352,15.1464,23.20609,42.24562,41.013,61.56065-19.60926-19.00859-20.05913-47.69307-46.45151-61.41161C201.02536,207.98571,184.228,202.742,173.705,178.17794c-5.58059-13.027-9.89489-24.85747-21.5247-34.294-10.0238-8.13341-22.26714-10.05709-32.91837-16.81368C95.388,111.92582,96.05676,84.825,78.24571,65.51467Z" style="fill:#fff"/><path d="M88.55453,41.28776c17.99893,23.74215,13.73962,54.74706,39.93475,73.90187,21.76943,15.91858,39.00662,24.34591,46.29648,52.5733,3.86578,14.96885,6.56894,28.43684,17.54984,40.53166,9.46558,10.4258,22.34891,14.52345,32.71678,23.57044,23.23912,20.27842,18.0401,49.38907,34.04855,73.15974-18.00258-23.73816-13.74633-54.74287-39.93753-73.898-21.76564-15.91845-39.01145-24.3492-46.298-52.57591-3.86425-14.96937-6.56084-28.43926-17.54141-40.537-9.46422-10.42709-22.34818-14.52513-32.71654-23.57131C99.36752,94.1662,104.56823,65.05406,88.55453,41.28776Z" style="fill:#fff"/><path d="M102.94071,49.392c15.1625,22.41244,9.78339,50.32311,32.60351,68.976,18.96464,15.50148,34.18525,23.98736,39.41615,49.94384,2.77391,13.76459,4.56682,26.11117,13.93412,37.61721,8.07467,9.91827,19.55841,14.26455,28.5188,22.97647,20.08432,19.52738,13.9456,45.67414,27.30149,68.01511-15.166-22.409-9.78966-50.31963-32.60622-68.97264-18.9612-15.50118-34.18946-23.99058-39.41738-49.94627-2.7725-13.765-4.55936-26.113-13.92623-37.62163-8.07336-9.91937-19.55767-14.266-28.51854-22.97725C110.16126,97.87727,116.30159,71.72923,102.94071,49.392Z" style="fill:#fff"/><path d="M116.07473,27.7249c12.96409,26.65621,2.77319,56.117,24.68966,79.97867,17.33448,18.873,32.77993,30.00329,34.94715,57.75794,1.30054,16.65556.05441,30.12566,9.38634,45.62935,6.77354,11.25329,17.52912,17.52041,25.76915,27.34573,20.44541,24.37886,9.39049,53.11957,20.71377,80.15116-12.96842-26.653-2.7806-56.11426-24.69312-79.97541-17.33143-18.87267-32.78287-30.0071-34.94785-57.76068-1.2993-16.6561-.04616-30.126-9.37735-45.633-6.772-11.25408-17.52788-17.52243-25.76855-27.347C116.3472,83.49479,127.40418,54.7532,116.07473,27.7249Z" style="fill:#fff"/><path d="M122.49619,24.30588c12.6776,29.4316.73142,59.26947,24.58259,85.12339,18.06855,19.58574,28.59822,33.44742,28.8192,61.28746.13284,16.73655.54583,30.33139,10.133,45.28915,6.29708,9.82458,15.97118,16.19505,22.78461,25.54208,18.37474,25.20743,6.38678,53.245,16.34375,80.45888-12.68225-29.428-.73864-59.26687-24.58584-85.11991-18.06583-19.5854-28.60156-33.45174-28.8194-61.29075-.131-16.73722-.5386-30.33183-10.12474-45.29272-6.29563-9.82546-15.96991-16.19629-22.78389-25.54269C120.46941,79.5552,132.45941,51.51677,122.49619,24.30588Z" style="fill:#fff"/><path d="M133.87573,21.80541c10.42365,30.163-3.54817,58.808,18.11576,86.20257,15.40519,19.48026,25.9284,34.17193,24.41439,60.33514-.91762,15.85716-2.87641,28.35108,4.0747,43.83773,5.38039,11.98718,15.31237,19.4989,22.32021,30.24335,17.32388,26.561,2.969,53.88277,10.97907,82.08318-10.41085-30.10857,3.62387-58.81452-18.11924-86.19936-16.47184-20.74585-25.89831-35.268-24.06808-62.88508,2.13642-32.23727-9.34248-45.75159-25.985-70.4654C127.45835,78.00652,142.05447,50.5738,133.87573,21.80541Z" style="fill:#fff"/><path d="M130.788,41.59628c10.42333,25.29844-.32719,50.70305,18.92216,73.56625,14.996,17.81138,26.13306,28.48964,26.14641,53.61242.01387,26.08381,5.795,39.406,22.6072,58.78879,20.73225,23.90213,8.98571,50.08505,18.40379,77.15284-10.4273-25.29526.321-50.70146-18.92524-73.56341-14.99312-17.80983-26.13663-28.49432-26.14728-53.61514-.01106-26.08391-5.78372-39.40879-22.598-58.79375C128.465,94.84245,140.21257,68.66193,130.788,41.59628Z" style="fill:#fff"/><path d="M158.27619,16.71537c5.152,29.35627-12.78678,55.10861,1.72289,84.07722,13.39824,26.74964,22.51427,38.55762,16.40244,70.47088-5.66241,29.56655-.50022,44.64146,12.72186,70.54315,15.75241,30.85856-3.42767,56.64986.25624,87.79056-5.15708-29.35434,12.77891-55.10793-1.72714-84.075-13.39543-26.7493-22.51587-38.56171-16.40159-70.47366,5.66483-29.56612.51272-44.642-12.71159-70.5462C142.78612,73.64451,161.96748,47.855,158.27619,16.71537Z" style="fill:#fff"/><path d="M155.62793,22.0777c5.9929,30.419-11.315,55.81238,5.89778,85.42562,12.63129,21.73111,20.16674,37.70147,14.75224,63.76859-6.25335,30.1056,2.00666,44.44083,15.01664,70.19148,14.52891,28.757-3.32547,53.69553.7285,82.7697-5.99832-30.41785,11.303-55.80875-5.90157-85.423-13.34546-22.97162-19.68031-38.99306-14.07631-66.17719,5.964-28.93068-3.23642-43.56831-15.6824-67.78876C141.6509,76.21407,159.678,51.07381,155.62793,22.0777Z" style="fill:#fff"/><path d="M173.42757,22.04821c2.37751,30.69714-17.63622,53.72639-4.10491,84.93284,10.49534,24.20474,14.87845,40.73719,6.19817,66.89691-9.75288,29.3922-.504,44.17722,8.47356,71.0422,9.935,29.73023-10.37617,50.72236-9.76592,79.34459-2.38287-30.69512,17.62879-53.72659,4.10087-84.93068-10.49353-24.20486-14.8803-40.74115-6.19639-66.89965,9.757-29.39111.51525-44.17765-8.46485-71.04371C153.731,71.66153,174.04461,50.66989,173.42757,22.04821Z" style="fill:#fff"/><path d="M176.02256,21.039c1.74421,28.92857-18.48624,51.21639-7.559,81.02649,9.45482,25.79314,17.91719,41.29589,8.04634,69.5534-10.40915,29.79848-3.25453,44.63608,5.9,72.75271,10.03938,30.83436-10.90107,51.52334-10.77643,80.90276-1.74931-28.92713,18.47869-51.217,7.55462-81.02487-9.45247-25.79239-17.91889-41.30018-8.04521-69.556,10.41261-29.798,3.26664-44.63481-5.89013-72.75395C155.212,71.10588,176.15416,50.41822,176.02256,21.039Z" style="fill:#fff"/><g id="Darkness" style="opacity:0.6900000000000001;mix-blend-mode:darken"><circle cx="174.16667" cy="173.83333" r="164.98896" style="fill:url(#radial-gradient-5)"/></g></g><g id="Color" style="mix-blend-mode:color"><path d="M174.16667,164.65753a9.17585,9.17585,0,1,1-9.17583,9.17584,9.18622,9.18622,0,0,1,9.17583-9.17584m0-152.55A161.72583,161.72583,0,1,0,335.89252,173.83337,161.7258,161.7258,0,0,0,174.16667,12.10754Z" style="fill:url(#linear-gradient)"/></g><g style="mask:url(#mask-3)"><g id="sColor" style="opacity:0.6000000000000001;mix-blend-mode:lighten"><path d="M174.16666,164.04651a9.78681,9.78681,0,1,1-9.78682,9.7868,9.798,9.798,0,0,1,9.78682-9.7868m0-162.7132a172.5,172.5,0,1,0,172.5,172.5,172.5,172.5,0,0,0-172.5-172.5Z" style="fill:url(#linear-gradient-2)"/></g></g></g><g id="top"><g id="IRIS-2" data-name="IRIS" style="mix-blend-mode:hard-light"><circle cx="174.16667" cy="173.83333" r="170.63448" style="fill:url(#radial-gradient-4)"/></g><g id="PUPIL-4" data-name="PUPIL" style="mix-blend-mode:darken"><circle cx="173.81677" cy="173.13354" r="84.33825" style="mix-blend-mode:multiply;fill:url(#radial-gradient-7)"/></g></g></g></svg>